<svg width="56" height="56" viewBox="0 0 56 56" fill="none" xmlns="http://www.w3.org/2000/svg">
<circle cx="28" cy="28" r="28" fill="#F2F2F7"/>
<path d="M0.152523 23.5512L17.9258 14.6645C18.1292 14.5628 18.4572 14.5628 18.6587 14.6645L55.8475 33.2589C55.8647 33.2666 55.8763 33.2762 55.8916 33.2858L55.8245 33.1841L55.999 33.1611V33.4316C56.0048 33.5007 55.9549 33.5716 55.8494 33.6254L38.0761 42.512C37.8728 42.6137 37.5447 42.6137 37.3433 42.512L0.152523 23.9176C-0.0508411 23.8159 -0.0508411 23.6528 0.152523 23.5512Z" fill="#AF6C4D"/>
<path d="M55.8473 33.3452L38.0741 42.2318C37.8707 42.3335 37.5426 42.3335 37.3412 42.2318L0.152388 23.6374C-0.0509759 23.5358 -0.0394648 23.3669 0.152388 23.271L17.9257 14.3844C18.129 14.2827 18.4571 14.2827 18.6585 14.3844L55.8473 32.9788C56.0507 33.0805 56.0507 33.2435 55.8473 33.3452Z" fill="#E49F6B"/>
<path d="M15.4048 21.5252L47.4596 37.5526L47.6054 37.4797L15.5525 21.4523L15.4048 21.5252Z" fill="#AF6C4D"/>
<path d="M24.8287 18.6029L18.7009 14.5683C18.2616 14.3476 17.968 14.5683 17.968 14.5683L9.08522 19.0097L0.200504 23.453C0.200504 23.453 0.102659 23.3398 0.0451028 23.3974L0.00481362 23.3647L0.000976562 23.7369C0.00289509 23.7907 0.0585325 23.7484 0.200504 23.8194L8.72646 26.8641C9.13894 27.0119 9.70299 26.9869 10.0598 26.8085L17.3694 23.1537L24.679 19.4989C25.0359 19.3205 25.1203 18.8101 24.8268 18.6049L24.8287 18.6029Z" fill="#AF6C4D"/>
<path d="M17.9679 14.3131L9.08511 18.7545L0.200391 23.1959C0.200391 23.1959 -0.238953 23.3417 0.200391 23.5623L8.72634 26.6071C9.13883 26.7548 9.70288 26.7298 10.0597 26.5514L17.3693 22.8966L24.6789 19.2418C25.0358 19.0634 25.0837 18.7814 24.7902 18.5742L18.7008 14.3112C18.2614 14.0906 17.9679 14.3112 17.9679 14.3112V14.3131Z" fill="#E7AE77"/>
<path d="M17.8664 21.4462C18.1925 21.6092 18.1925 22.0428 17.8664 22.2059C17.5402 22.369 17.0107 22.369 16.6846 22.2059C16.3584 22.0428 16.3584 21.6092 16.6846 21.4462C17.0107 21.2831 17.5402 21.2831 17.8664 21.4462Z" fill="#B0B0B0"/>
<path d="M17.8664 21.4462C18.1925 21.6092 18.1925 21.874 17.8664 22.0371C17.5402 22.2001 17.0107 22.2001 16.6846 22.0371C16.3584 21.874 16.3584 21.6092 16.6846 21.4462C17.0107 21.2831 17.5402 21.2831 17.8664 21.4462Z" fill="white"/>
<path d="M8.90668 25.2837L5.12717 23.3862C5.03508 23.3402 5.03508 23.2654 5.12717 23.2193L10.3974 20.5852C10.4895 20.5391 10.6372 20.5391 10.7293 20.5852L14.5088 22.4826C14.6009 22.5287 14.6009 22.6035 14.5088 22.6495L9.23858 25.2837C9.1465 25.3297 8.99685 25.3297 8.90668 25.2837Z" fill="#31353F"/>
<path d="M14.2461 22.6496L9.23869 25.1532C9.1466 25.1993 8.99887 25.1993 8.90678 25.1532L5.39011 23.3863C5.29802 23.3402 5.29802 23.2654 5.39011 23.2194L10.3975 20.7157C10.4896 20.6696 10.6373 20.6696 10.7294 20.7157L14.2461 22.4827C14.3381 22.5287 14.3381 22.6035 14.2461 22.6496Z" fill="white"/>
<path d="M10.2498 21.2221L5.94463 23.3747L5.82568 23.3152L10.1309 21.1626L10.2498 21.2221Z" fill="#31353F"/>
<path d="M10.5318 21.3625L6.22662 23.515L6.10767 23.4556L10.4128 21.303L10.5318 21.3625Z" fill="#31353F"/>
<path d="M10.8118 21.5023L6.50664 23.6549L6.3877 23.5955L10.6929 21.4429L10.8118 21.5023Z" fill="#31353F"/>
<path d="M11.0921 21.6425L6.78692 23.7951L6.66797 23.7356L10.9732 21.583L11.0921 21.6425Z" fill="#31353F"/>
<path d="M11.3721 21.7824L7.06695 23.935L6.948 23.8755L11.2532 21.7229L11.3721 21.7824Z" fill="#31353F"/>
<path d="M13.1755 22.1453L10.4607 23.5017L10.3418 23.4441L13.0565 22.0858L13.1755 22.1453Z" fill="#31353F"/>
<path d="M13.4555 22.2852L10.7408 23.6435L10.6238 23.584L13.3366 22.2257L13.4555 22.2852Z" fill="#31353F"/>
<path d="M13.7358 22.4254L11.023 23.7837L10.9041 23.7242L13.6169 22.3678L13.7358 22.4254Z" fill="#31353F"/>
<path d="M12.3677 21.7823L7.46582 24.2342L7.52913 24.2668L12.431 21.815L12.3677 21.7823Z" fill="#31353F"/>
<path d="M47.0549 35.8279L44.3191 34.46C44.227 34.4139 44.227 34.3391 44.3191 34.2931L49.6296 31.6378C49.7216 31.5918 49.8713 31.5918 49.9653 31.6378L52.7011 33.0057C52.7932 33.0518 52.7932 33.1266 52.7011 33.1726L47.3906 35.8279C47.2985 35.8739 47.1489 35.8739 47.0549 35.8279Z" fill="#31353F"/>
<path d="M52.4363 33.1706L47.3905 35.6935C47.2984 35.7395 47.1488 35.7395 47.0548 35.6935L44.5837 34.458C44.4916 34.4119 44.4916 34.3371 44.5837 34.291L49.6294 31.7682C49.7215 31.7221 49.8712 31.7221 49.9652 31.7682L52.4363 33.0037C52.5284 33.0498 52.5284 33.1246 52.4363 33.1706Z" fill="white"/>
<path d="M47.5305 35.3329L47.3367 35.4307L45.1323 34.3276L45.3261 34.2297L47.5305 35.3329Z" fill="#31353F"/>
<path d="M48.6877 34.7555L48.4939 34.8514L46.2876 33.7502L46.4814 33.6523L48.6877 34.7555Z" fill="#31353F"/>
<path d="M48.8236 34.6863L48.7622 34.717L46.5559 33.6157L46.6173 33.5831L48.8236 34.6863Z" fill="#31353F"/>
<path d="M48.9523 34.6229L48.889 34.6536L46.6846 33.5505L46.746 33.5198L48.9523 34.6229Z" fill="#31353F"/>
<path d="M49.5949 34.3007L49.5335 34.3314L47.3291 33.2282L47.3905 33.1975L49.5949 34.3007Z" fill="#31353F"/>
<path d="M47.7436 35.2274L47.6458 35.2754L45.4395 34.1722L45.5373 34.1243L47.7436 35.2274Z" fill="#31353F"/>
<path d="M49.2382 34.4793L49.0444 34.5771L46.8381 33.4739L47.0338 33.3761L49.2382 34.4793Z" fill="#31353F"/>
<path d="M49.4492 34.3735L49.3533 34.4215L47.147 33.3183L47.2448 33.2704L49.4492 34.3735Z" fill="#31353F"/>
<path d="M47.9546 35.1217L47.8567 35.1697L45.6523 34.0665L45.7483 34.0186L47.9546 35.1217Z" fill="#31353F"/>
<path d="M48.1658 35.0164L48.0698 35.0643L45.8635 33.9612L45.9614 33.9132L48.1658 35.0164Z" fill="#31353F"/>
<path d="M48.3787 34.909L48.2808 34.9589L46.0764 33.8557L46.1723 33.8077L48.3787 34.909Z" fill="#31353F"/>
<path d="M49.5029 32.1428L49.6967 32.0449L51.903 33.1481L51.7092 33.244L49.5029 32.1428Z" fill="#31353F"/>
<path d="M48.3479 32.72L48.5417 32.6222L50.7461 33.7253L50.5523 33.8232L48.3479 32.72Z" fill="#31353F"/>
<path d="M48.2097 32.7874L48.273 32.7567L50.4774 33.8599L50.416 33.8906L48.2097 32.7874Z" fill="#31353F"/>
<path d="M48.0833 32.8526L48.1446 32.8219L50.351 33.9231L50.2876 33.9558L48.0833 32.8526Z" fill="#31353F"/>
<path d="M47.4387 33.1748L47.5001 33.1422L49.7064 34.2454L49.645 34.2761L47.4387 33.1748Z" fill="#31353F"/>
<path d="M49.2917 32.2482L49.3877 32.1984L51.594 33.3015L51.4961 33.3514L49.2917 32.2482Z" fill="#31353F"/>
<path d="M47.7954 32.9947L47.9892 32.8988L50.1955 34.002L50.0017 34.0979L47.7954 32.9947Z" fill="#31353F"/>
<path d="M47.5842 33.1019L47.6802 33.052L49.8865 34.1552L49.7905 34.2031L47.5842 33.1019Z" fill="#31353F"/>
<path d="M49.0789 32.3537L49.1767 32.3058L51.383 33.407L51.2852 33.4569L49.0789 32.3537Z" fill="#31353F"/>
<path d="M48.8679 32.4593L48.9658 32.4114L51.1702 33.5145L51.0742 33.5625L48.8679 32.4593Z" fill="#31353F"/>
<path d="M48.657 32.5648L48.7529 32.5168L50.9592 33.62L50.8614 33.668L48.657 32.5648Z" fill="#31353F"/>
<path d="M30.4844 15.5163V28.2918L29.0647 27.5819V14.8064L30.4844 15.5163Z" fill="#3B5998"/>
<path d="M24.6023 14.8466V25.3505L23.1826 24.6407V15.5564L24.6023 14.8466Z" fill="#3B5998"/>
<path d="M33.4255 16.9877V29.7613L32.0039 29.0514V16.2778L33.4255 16.9877Z" fill="#852626"/>
<path d="M50.6117 25.1741C50.8208 25.2797 50.7652 25.8264 50.5561 25.932L49.7119 26.354V25.13L50.6117 25.1741Z" fill="#852626"/>
<path d="M39.3691 19.9596V31.5264L38.5403 31.9408C38.3811 32.0214 38.1451 32.0387 37.9475 31.9965V19.2498L39.3672 19.9596H39.3691Z" fill="#852626"/>
<path d="M26.4938 13.9007C26.703 13.7952 27.0425 13.7952 27.2536 13.9007L27.5452 14.0465V26.8201L26.1255 26.1102V14.0868L26.4958 13.9007H26.4938Z" fill="#852626"/>
<path d="M42.3103 21.4291V30.0548L40.8887 30.7666V20.7192L42.3103 21.4291Z" fill="#3B5998"/>
<path d="M48.1907 24.3704V27.1158L46.771 27.8257V23.6605L48.1907 24.3704Z" fill="#3B5998"/>
<path d="M15.7176 20.9072L14.4782 20.2875C14.2691 20.182 14.1885 19.6525 14.3976 19.5489L15.7176 19.288V20.9072Z" fill="#852626"/>
<path d="M18.6585 17.8185V22.3788L17.2388 21.669V18.5283L18.6585 17.8185Z" fill="#3B5998"/>
<path d="M21.6629 16.316V23.8808L20.178 23.1383V17.0585L21.6629 16.316Z" fill="#852626"/>
<path d="M45.2512 22.9005L45.2493 28.5851L43.8296 29.295V22.1907L45.2512 22.9005Z" fill="#852626"/>
<path d="M36.4281 18.4898V31.2634L34.9451 30.5209V17.7473L36.4281 18.4898Z" fill="#3B5998"/>
<path d="M49.7121 25.1299V26.3539L48.1907 27.1155V24.3701L49.7121 25.1299Z" fill="#D2D2D2"/>
<path d="M46.7709 23.6603V27.8254L45.2495 28.5851L45.2514 22.9005L46.7709 23.6603Z" fill="#D2D2D2"/>
<path d="M43.8295 22.1909V29.2952L42.3101 30.0549V21.4292L43.8295 22.1909Z" fill="#D2D2D2"/>
<path d="M40.8886 20.7193V30.7667L39.3691 31.5264V19.9596L40.8886 20.7193Z" fill="#D2D2D2"/>
<path d="M37.9494 19.2496V31.9963C37.888 31.9829 37.8324 31.9637 37.7825 31.9407L36.4299 31.2634V18.4899L37.9494 19.2496Z" fill="#D2D2D2"/>
<path d="M34.945 17.7474V30.521L33.4255 29.7613V16.9877L34.945 17.7474Z" fill="#D2D2D2"/>
<path d="M32.0041 16.2779V29.0515L30.4846 28.2917V15.5162L32.0041 16.2779Z" fill="#D2D2D2"/>
<path d="M29.0649 14.8062V27.5817L27.5435 26.8201V14.0465L29.0649 14.8062Z" fill="#D2D2D2"/>
<path d="M26.1237 14.0867V26.1101L24.6023 25.3504V14.8464L26.1237 14.0867Z" fill="#D2D2D2"/>
<path d="M23.1826 15.5565V24.6408L21.6631 23.881V16.3163L23.1826 15.5565Z" fill="#D2D2D2"/>
<path d="M20.1782 17.0586V23.1384L18.6587 22.3787V17.8183L20.1782 17.0586Z" fill="#D2D2D2"/>
<path d="M17.2389 18.5284V21.6691L15.7175 20.9074V19.2901L17.2389 18.5284Z" fill="#D2D2D2"/>
<path d="M16.3756 20.2876L37.7826 30.9911C37.9917 31.0966 38.3313 31.0966 38.5423 30.9911L48.6606 25.9319C48.8697 25.8264 48.8697 25.6576 48.6606 25.5521L27.2537 14.8505C27.0445 14.745 26.705 14.745 26.4939 14.8505L16.3756 19.9097C16.1665 20.0152 16.1665 20.184 16.3756 20.2895V20.2876Z" fill="white"/>
<path d="M30.4844 15.1056V27.8792L29.0647 27.1693V14.3958L30.4844 15.1056Z" fill="#5380DE"/>
<path d="M24.6023 14.4362V24.9401L23.1826 24.2303V15.146L24.6023 14.4362Z" fill="#5380DE"/>
<path d="M33.4255 16.5753V29.3508L32.0039 28.641V15.8655L33.4255 16.5753Z" fill="#C33333"/>
<path d="M50.5561 25.1414C50.7652 25.247 50.7652 25.4158 50.5561 25.5213L49.7119 25.9434V24.7194L50.5561 25.1414Z" fill="#C33333"/>
<path d="M39.3691 19.549V31.1158L38.5403 31.5302C38.3811 31.6108 38.1451 31.628 37.9475 31.5858V18.8391L39.3672 19.549H39.3691Z" fill="#C33333"/>
<path d="M26.4938 13.4903C26.703 13.3848 27.0425 13.3848 27.2536 13.4903L27.5452 13.6361V26.4097L26.1255 25.6998V13.6764L26.4958 13.4903H26.4938Z" fill="#C33333"/>
<path d="M42.3103 21.0187V29.6444L40.8887 30.3543V20.3088L42.3103 21.0187Z" fill="#5380DE"/>
<path d="M48.1907 23.9596V26.7031L46.771 27.4149V23.2498L48.1907 23.9596Z" fill="#5380DE"/>
<path d="M15.7175 20.4969L14.4781 19.8772C14.269 19.7717 14.269 19.6029 14.4781 19.4974L15.7175 18.8777V20.4969Z" fill="#C33333"/>
<path d="M18.6587 17.4078V21.9682L17.239 21.2564V18.1177L18.6587 17.4078Z" fill="#5380DE"/>
<path d="M21.6632 15.9058V23.4686L20.1782 22.7281V16.6482L21.6632 15.9058Z" fill="#C33333"/>
<path d="M45.2512 22.4882L45.2493 28.1747L43.8296 28.8846V21.7783L45.2512 22.4882Z" fill="#C33333"/>
<path d="M36.4281 18.0775V30.853L34.9451 30.1105V17.3369L36.4281 18.0775Z" fill="#5380DE"/>
<path d="M49.7121 24.7195V25.9435L48.1907 26.7032V23.9597L49.7121 24.7195Z" fill="white"/>
<path d="M46.7709 23.2499V27.4151L45.2495 28.1748L45.2514 22.4883L46.7709 23.2499Z" fill="white"/>
<path d="M43.83 21.7782V28.8844L42.3105 29.6441V21.0184L43.83 21.7782Z" fill="white"/>
<path d="M40.8886 20.3087V30.3541L39.3691 31.1158V19.549L40.8886 20.3087Z" fill="white"/>
<path d="M37.9494 18.8392V31.5859C37.888 31.5725 37.8324 31.5533 37.7825 31.5303L36.4299 30.853V18.0775L37.9494 18.8373V18.8392Z" fill="white"/>
<path d="M34.945 17.3371V30.1107L33.4255 29.3509V16.5754L34.945 17.3371Z" fill="white"/>
<path d="M32.0041 15.8653V28.6408L30.4846 27.8792V15.1056L32.0041 15.8653Z" fill="white"/>
<path d="M29.0649 14.3958V27.1694L27.5435 26.4097V13.6361L29.0649 14.3958Z" fill="white"/>
<path d="M26.1237 13.6763V25.6997L24.6023 24.94V14.436L26.1237 13.6763Z" fill="white"/>
<path d="M23.1826 15.1461V24.2304L21.6631 23.4687V15.9059L23.1826 15.1461Z" fill="white"/>
<path d="M20.1782 16.6482V22.728L18.6587 21.9683V17.4079L20.1782 16.6482Z" fill="white"/>
<path d="M17.2389 18.1178V21.2565L15.7175 20.4968V18.8775L17.2389 18.1178Z" fill="white"/>
<path d="M16.3756 19.8769L37.7826 30.5804C37.9917 30.6859 38.3313 30.6859 38.5423 30.5804L48.6606 25.5213C48.8697 25.4157 48.8697 25.2469 48.6606 25.1414L27.2537 14.4379C27.0445 14.3324 26.705 14.3324 26.4939 14.4379L16.3756 19.4971C16.1665 19.6026 16.1665 19.7714 16.3756 19.8769Z" fill="white"/>
<path d="M43.6245 26.3827L46.2893 25.0512L44.3113 24.0613L41.6465 25.3947L43.6245 26.3827Z" fill="#3B5998"/>
<path d="M41.7212 25.3946L43.6244 26.3462L46.2144 25.0512L44.3112 24.0996L41.7212 25.3946Z" fill="#99CBFC"/>
<path d="M45.1594 25.5786C45.1594 25.5786 43.8836 25.4309 43.5018 25.193C43.12 24.9551 43.0797 24.7172 43.0797 24.7172L42.4082 25.0529L44.3095 26.0045L45.1575 25.5805L45.1594 25.5786Z" fill="#5083C2"/>
<path d="M44.4148 25.9508C44.4148 25.9508 43.2042 25.3734 43.139 24.6865L41.7212 25.3945L43.6244 26.3461L44.4148 25.9508Z" fill="#6197D5"/>
<path d="M45.1458 24.9073C45.234 24.8747 45.3587 24.8785 45.4374 24.9169C45.5161 24.9552 45.5237 25.0128 45.4681 25.0569C45.5122 25.0627 45.5525 25.078 45.5832 25.0972C45.6388 25.1356 45.6408 25.1874 45.587 25.2258C45.5391 25.2603 45.4393 25.2641 45.3798 25.2334L45.259 25.174L45.1861 25.1375L45.0364 25.0627L44.9904 25.0397L44.8964 24.9936C44.8503 24.9706 44.8465 24.9322 44.8925 24.9092C44.9616 24.8747 45.0729 24.8747 45.1439 24.9073H45.1458Z" fill="white"/>
<path d="M44.0562 24.9669C44.0984 24.9516 44.1579 24.9535 44.1962 24.9727C44.2327 24.99 44.2365 25.0187 44.2097 25.0398C44.2308 25.0437 44.2499 25.0494 44.2653 25.059C44.2922 25.0763 44.2921 25.1012 44.2672 25.1204C44.2442 25.1377 44.1962 25.1377 44.1674 25.1242L44.1099 25.0955L44.0754 25.0782L44.0044 25.0418L43.9833 25.0302L43.9391 25.0072C43.9161 24.9957 43.9161 24.9784 43.9391 24.9669C43.9718 24.9497 44.0255 24.9497 44.06 24.9669H44.0562Z" fill="white"/>
<path d="M44.0331 24.4507C44.0983 24.4258 44.1923 24.4277 44.2518 24.4584C44.3093 24.4872 44.3151 24.5313 44.2748 24.5639C44.3074 24.5697 44.3381 24.5793 44.3611 24.5946C44.4034 24.6234 44.4034 24.6618 44.365 24.6905C44.3285 24.7155 44.2537 24.7193 44.2096 24.6963L44.1194 24.6502L44.0657 24.6234L43.9544 24.5678L43.9199 24.5505L43.8489 24.516C43.8144 24.4987 43.8124 24.4699 43.847 24.4526C43.8988 24.4258 43.9832 24.4258 44.0369 24.4526L44.0331 24.4507Z" fill="white"/>
<path d="M41.5236 23.9556C41.1073 23.7234 40.478 23.4759 39.5571 23.3186C39.5859 23.3244 39.6185 23.3148 39.6281 23.3013C39.6377 23.286 39.6224 23.2706 39.5936 23.2649C40.5874 23.4337 41.2474 23.7081 41.6733 23.9556C41.6234 23.9556 41.5735 23.9556 41.5236 23.9556Z" fill="#3B5998"/>
<path d="M39.5228 23.2823C39.5152 23.2919 39.5228 23.3034 39.5363 23.3111C39.542 23.315 39.5497 23.3169 39.5574 23.3188C38.7266 23.1768 38.1281 22.9639 37.706 22.7528C37.4834 22.6416 37.3089 22.5303 37.1765 22.4324C36.7563 22.1216 36.6374 21.8665 36.6335 21.855C36.6259 21.8396 36.645 21.8243 36.6757 21.8204C36.7064 21.8166 36.7371 21.8262 36.7429 21.8415C36.7429 21.8434 36.8618 22.0986 37.2705 22.3998C37.6484 22.678 38.3583 23.056 39.5957 23.2651C39.567 23.2593 39.5343 23.2689 39.5248 23.2823H39.5228Z" fill="#3B5998"/>
<path d="M39.6282 23.3017C39.6186 23.317 39.586 23.3247 39.5572 23.3189C39.5495 23.3189 39.5419 23.3151 39.5361 23.3113C39.5208 23.3036 39.515 23.2921 39.5227 23.2825C39.5323 23.2671 39.5649 23.2595 39.5937 23.2652C39.6224 23.271 39.6397 23.2863 39.6282 23.3017Z" fill="#3B5998"/>
<path d="M38.9182 23.6373C38.947 23.6431 38.9796 23.6354 38.9892 23.6201C38.9988 23.6047 38.9834 23.5894 38.9547 23.5836C39.6645 23.7045 40.2055 23.8791 40.6123 24.0594C40.5739 24.0671 40.5375 24.0767 40.501 24.0863C40.1077 23.9155 39.5916 23.7524 38.9182 23.6373Z" fill="#3B5998"/>
<path d="M38.882 23.6027C38.8743 23.6123 38.882 23.6238 38.8954 23.6314C38.9012 23.6353 38.9088 23.6372 38.9165 23.6391C38.0858 23.4991 37.4872 23.2842 37.0651 23.0731C36.8426 22.9619 36.668 22.8506 36.5356 22.7527C36.1154 22.4419 35.9965 22.1868 35.9927 22.1753C35.985 22.1599 36.0042 22.1446 36.0349 22.1407C36.0656 22.1369 36.0963 22.1465 36.102 22.1618C36.102 22.1638 36.221 22.4189 36.6296 22.7201C37.0076 22.9983 37.7174 23.3763 38.9549 23.5854C38.9261 23.5796 38.8935 23.5892 38.8839 23.6027H38.882Z" fill="#3B5998"/>
<path d="M38.9893 23.62C38.9797 23.6354 38.9471 23.6431 38.9183 23.6373C38.9106 23.6373 38.9029 23.6335 38.8972 23.6296C38.8818 23.6219 38.8761 23.6104 38.8838 23.6008C38.8933 23.5855 38.926 23.5778 38.9547 23.5836C38.9835 23.5893 39.0008 23.6047 38.9893 23.62Z" fill="#3B5998"/>
<path d="M38.2776 23.9577C38.3064 23.9634 38.339 23.9538 38.3486 23.9404C38.3582 23.925 38.3428 23.9097 38.314 23.9039C38.9567 24.0133 39.4594 24.1668 39.8508 24.3279C39.8239 24.3414 39.799 24.3548 39.774 24.3701C39.3923 24.2128 38.903 24.0651 38.2776 23.9577Z" fill="#3B5998"/>
<path d="M38.2431 23.9232C38.2354 23.9328 38.243 23.9443 38.2565 23.952C38.2622 23.9558 38.2699 23.9577 38.2776 23.9597C37.4469 23.8177 36.8483 23.6047 36.4262 23.3937C36.2037 23.2824 36.0291 23.1712 35.8967 23.0733C35.4765 22.7625 35.3576 22.5073 35.3537 22.4958C35.3461 22.4805 35.3653 22.4651 35.396 22.4613C35.4266 22.4575 35.4573 22.4671 35.4631 22.4824C35.4631 22.4843 35.582 22.7395 35.9907 23.0407C36.3686 23.3189 37.0785 23.6968 38.316 23.9059C38.2872 23.9002 38.2546 23.9098 38.245 23.9232H38.2431Z" fill="#3B5998"/>
<path d="M38.3484 23.9403C38.3388 23.9557 38.3062 23.9634 38.2774 23.9576C38.2697 23.9576 38.2621 23.9538 38.2563 23.9499C38.241 23.9423 38.2352 23.9307 38.2429 23.9212C38.2525 23.9058 38.2851 23.8981 38.3139 23.9039C38.3426 23.9096 38.3599 23.925 38.3484 23.9403Z" fill="#3B5998"/>
<path d="M37.7097 24.2607C37.7193 24.2453 37.7039 24.23 37.6751 24.2242C38.3984 24.347 38.9452 24.5255 39.3538 24.7096C39.3385 24.7288 39.3251 24.748 39.3116 24.7672C38.9087 24.583 38.3658 24.4027 37.6387 24.278C37.6674 24.2837 37.7001 24.2741 37.7097 24.2607Z" fill="#3B5998"/>
<path d="M34.7551 22.7797C34.7858 22.7758 34.8165 22.7854 34.8223 22.8008C34.8223 22.8027 34.9412 23.0578 35.3499 23.3591C35.7278 23.6372 36.4377 24.0152 37.6751 24.2243C37.6463 24.2186 37.6137 24.2281 37.6041 24.2416C37.5965 24.2512 37.6041 24.2627 37.6176 24.2704C37.6233 24.2742 37.631 24.2761 37.6387 24.278C36.8079 24.1361 36.2094 23.9231 35.7873 23.7121C35.5647 23.6008 35.3902 23.4895 35.2578 23.3917C34.8376 23.0809 34.7187 22.8257 34.7148 22.8142C34.7072 22.7988 34.7263 22.7835 34.757 22.7797H34.7551Z" fill="#3B5998"/>
<path d="M37.602 24.2415C37.6116 24.2261 37.6442 24.2184 37.673 24.2242C37.7018 24.23 37.719 24.2453 37.7075 24.2607C37.6979 24.276 37.6653 24.2837 37.6365 24.2779C37.6289 24.2779 37.6212 24.2741 37.6154 24.2702C37.6001 24.2626 37.5943 24.2511 37.602 24.2415Z" fill="#3B5998"/>
<path d="M39.8851 24.3106C38.9374 24.7845 38.9374 25.5519 39.8851 26.0258C40.8329 26.4997 42.3696 26.4997 43.3155 26.0258C44.2632 25.5519 44.2632 24.7845 43.3155 24.3106C42.3677 23.8367 40.831 23.8367 39.8851 24.3106ZM39.9868 24.3605C40.8789 23.9154 42.3236 23.9154 43.2157 24.3605C44.1078 24.8056 44.1078 25.5289 43.2157 25.974C42.3236 26.4191 40.8789 26.4191 39.9868 25.974C39.0947 25.5289 39.0947 24.8056 39.9868 24.3605Z" fill="#3B5998"/>
<path d="M40.4838 24.6097C39.8661 24.9186 39.8661 25.4193 40.4838 25.7263C41.1016 26.0352 42.1012 26.0352 42.7189 25.7263C43.3367 25.4174 43.3367 24.9167 42.7189 24.6097C42.1012 24.3008 41.1016 24.3008 40.4838 24.6097ZM40.5932 24.6634C41.1496 24.3852 42.0532 24.3852 42.6096 24.6634C43.1659 24.9416 43.1659 25.3944 42.6096 25.6726C42.0532 25.9508 41.1496 25.9508 40.5932 25.6726C40.0368 25.3944 40.0368 24.9416 40.5932 24.6634Z" fill="#3B5998"/>
<path d="M42.8552 25.7935C42.8015 25.8203 42.8015 25.8625 42.8552 25.8894C42.9089 25.9162 42.9953 25.9162 43.0471 25.8894C43.1008 25.8625 43.1008 25.8203 43.0471 25.7935C42.9934 25.7666 42.907 25.7666 42.8552 25.7935Z" fill="#3B5998"/>
<path d="M40.1558 24.4446C40.102 24.4714 40.102 24.5137 40.1558 24.5405C40.2095 24.5674 40.2958 24.5674 40.3476 24.5405C40.3994 24.5137 40.4013 24.4714 40.3476 24.4446C40.2939 24.4177 40.2076 24.4177 40.1558 24.4446Z" fill="#3B5998"/>
<path d="M42.3735 25.2391C42.3198 25.266 42.3198 25.3082 42.3735 25.3351C42.4273 25.3619 42.5136 25.3619 42.5654 25.3351C42.6191 25.3082 42.6191 25.266 42.5654 25.2391C42.5117 25.2123 42.4253 25.2123 42.3735 25.2391Z" fill="#3B5998"/>
<path d="M41.8191 24.9628C41.7654 24.9896 41.7654 25.0318 41.8191 25.0587C41.8728 25.0856 41.9592 25.0856 42.011 25.0587C42.0647 25.0318 42.0647 24.9896 42.011 24.9628C41.9572 24.9359 41.8709 24.9359 41.8191 24.9628Z" fill="#3B5998"/>
<path d="M41.2627 24.6845C41.209 24.7113 41.209 24.7535 41.2627 24.7804C41.3164 24.8072 41.4028 24.8072 41.4546 24.7804C41.5083 24.7535 41.5083 24.7113 41.4546 24.6845C41.4008 24.6576 41.3145 24.6576 41.2627 24.6845Z" fill="#3B5998"/>
<path d="M41.6829 25.5859C41.6291 25.6128 41.6291 25.655 41.6829 25.6819C41.7366 25.7087 41.8229 25.7087 41.8747 25.6819C41.9284 25.655 41.9284 25.6128 41.8747 25.5859C41.821 25.5591 41.7347 25.5591 41.6829 25.5859Z" fill="#3B5998"/>
<path d="M41.1265 25.3077C41.0728 25.3346 41.0728 25.3768 41.1265 25.4037C41.1802 25.4305 41.2665 25.4305 41.3183 25.4037C41.3701 25.3768 41.372 25.3346 41.3183 25.3077C41.2646 25.2809 41.1783 25.2809 41.1265 25.3077Z" fill="#3B5998"/>
<path d="M40.572 25.0298C40.5183 25.0566 40.5183 25.0989 40.572 25.1257C40.6257 25.1526 40.7121 25.1526 40.7639 25.1257C40.8176 25.0989 40.8176 25.0566 40.7639 25.0298C40.7102 25.0029 40.6238 25.0029 40.572 25.0298Z" fill="#3B5998"/>
<path d="M26.3423 15.4703L32.2475 18.4248L32.4317 18.3327L26.5245 15.3782L26.3423 15.4703Z" fill="#3B5998"/>
<path d="M25.7629 15.76L31.6682 18.7145L31.8524 18.6224L25.9452 15.6698L25.7629 15.76Z" fill="#3B5998"/>
<path d="M25.1816 16.0517L31.0888 19.0043L31.273 18.9122L25.3658 15.9596L25.1816 16.0517Z" fill="#3B5998"/>
<path d="M24.6023 16.3414L30.5095 19.294L30.6936 19.2019L24.7865 16.2493L24.6023 16.3414Z" fill="#3B5998"/>
<path d="M33.9551 25.5484L39.8603 28.5029L40.0445 28.4108L34.1373 25.4563L33.9551 25.5484Z" fill="#3B5998"/>
<path d="M33.3738 25.8379L39.2809 28.7925L39.4651 28.7004L33.558 25.7458L33.3738 25.8379Z" fill="#3B5998"/>
<path d="M32.7944 26.1279L38.7016 29.0824L38.8858 28.9903L32.9786 26.0358L32.7944 26.1279Z" fill="#3B5998"/>
<path d="M32.2151 26.4174L38.1222 29.372L38.3064 29.2799L32.3993 26.3273L32.2151 26.4174Z" fill="#3B5998"/>
<path d="M27.9731 24.6005L28.1094 24.6695L29.0571 24.1957L28.9209 24.1266L27.9731 24.6005Z" fill="#3B5998"/>
<path d="M27.5894 24.4087L27.7256 24.4778L28.6733 24.0039L28.5371 23.9348L27.5894 24.4087Z" fill="#3B5998"/>
<path d="M27.2058 24.2168L27.342 24.2859L27.697 24.1074L27.5607 24.0403L27.2058 24.2168Z" fill="#3B5998"/>
<path d="M26.822 24.0249L26.9582 24.092L27.3112 23.9155L27.1769 23.8484L26.822 24.0249Z" fill="#3B5998"/>
<path d="M26.4382 23.8331L26.5744 23.9003L26.9275 23.7238L26.7912 23.6566L26.4382 23.8331Z" fill="#3B5998"/>
<path d="M26.0527 23.6413L26.189 23.7085L26.5439 23.532L26.4077 23.4648L26.0527 23.6413Z" fill="#3B5998"/>
<path d="M25.6689 23.4495L25.8052 23.5167L26.1601 23.3402L26.0239 23.2711L25.6689 23.4495Z" fill="#3B5998"/>
<path d="M25.2852 23.2578L25.4214 23.3249L25.7763 23.1484L25.6401 23.0793L25.2852 23.2578Z" fill="#3B5998"/>
<path d="M24.9016 23.0658L25.0378 23.1329L25.9856 22.6591L25.8494 22.5919L24.9016 23.0658Z" fill="#3B5998"/>
<path d="M24.5178 22.874L24.654 22.9411L25.6018 22.4673L25.4656 22.3982L24.5178 22.874Z" fill="#3B5998"/>
<path d="M24.134 22.6821L24.2702 22.7492L24.6233 22.5727L24.487 22.5037L24.134 22.6821Z" fill="#3B5998"/>
<path d="M23.7505 22.4883L23.8848 22.5573L24.2397 22.3808L24.1035 22.3118L23.7505 22.4883Z" fill="#3B5998"/>
<path d="M23.3647 22.2964L23.501 22.3655L24.4506 21.8916L24.3144 21.8225L23.3647 22.2964Z" fill="#3B5998"/>
<path d="M22.9812 22.1047L23.1174 22.1738L23.4723 21.9954L23.3361 21.9282L22.9812 22.1047Z" fill="#3B5998"/>
<path d="M22.5974 21.9127L22.7336 21.9818L23.6814 21.5079L23.5452 21.4388L22.5974 21.9127Z" fill="#3B5998"/>
<path d="M22.2136 21.7209L22.3498 21.79L23.2976 21.3142L23.1614 21.2471L22.2136 21.7209Z" fill="#3B5998"/>
<path d="M21.8301 21.5289L21.9663 21.598L22.914 21.1222L22.7778 21.0551L21.8301 21.5289Z" fill="#3B5998"/>
<path d="M21.4463 21.337L21.5825 21.4042L22.5303 20.9303L22.394 20.8632L21.4463 21.337Z" fill="#3B5998"/>
<path d="M21.0625 21.1454L21.1968 21.2125L21.5517 21.036L21.4155 20.9689L21.0625 21.1454Z" fill="#3B5998"/>
<path d="M20.677 20.9533L20.8132 21.0205L21.1681 20.844L21.0319 20.7749L20.677 20.9533Z" fill="#3B5998"/>
<path d="M20.2932 20.7616L20.4294 20.8287L20.7844 20.6522L20.6481 20.5831L20.2932 20.7616Z" fill="#3B5998"/>
<path d="M19.9094 20.5697L20.0456 20.6368L20.4006 20.4603L20.2644 20.3912L19.9094 20.5697Z" fill="#3B5998"/>
<path d="M19.5259 20.3779L19.6621 20.445L20.017 20.2685L19.8808 20.1995L19.5259 20.3779Z" fill="#3B5998"/>
<path d="M19.1421 20.1859L19.2783 20.253L20.2261 19.7791L20.0898 19.7101L19.1421 20.1859Z" fill="#3B5998"/>
</svg>
