<svg width="56" height="56" viewBox="0 0 56 56" fill="none" xmlns="http://www.w3.org/2000/svg">
<circle cx="28" cy="28" r="28" fill="#F2F2F7"/>
<path d="M27.924 28.2199L27.8586 51.0003L8.03271 39.5547L8.09815 16.7693L27.924 28.2199Z" fill="#E49F6B"/>
<path d="M27.9242 28.2195L48.188 16.4418L48.1225 39.2272L27.8588 50.9999L27.9242 28.2195Z" fill="#AF6C4D"/>
<path d="M8.09827 16.7693L27.9996 4.99658L48.1879 16.4421L27.9241 28.2199L8.09827 16.7693Z" fill="#E7AE77"/>
<path d="M48.1879 16.4424L27.9996 4.99683L20.0471 9.70289L39.8428 21.2944L48.1879 16.4424Z" fill="#E7AE77"/>
<path d="M8.09839 16.7688L27.9243 28.2194L36.0982 23.468L16.3378 11.8966L8.09839 16.7688Z" fill="#E7AE77"/>
<g style="mix-blend-mode:soft-light">
<path d="M17.4448 11.2377L16.3375 11.897L36.098 23.4684L37.2204 22.8191L17.4448 11.2377Z" fill="white"/>
</g>
<g style="mix-blend-mode:soft-light">
<path d="M38.7203 21.9431L39.8427 21.2938L20.047 9.70227L18.9347 10.3566L38.7203 21.9431Z" fill="white"/>
</g>
<path d="M17.4447 11.2373L37.2202 22.8187L38.7201 21.9429L18.9345 10.3564L17.4447 11.2373Z" fill="#AF6C4D"/>
<path d="M20.304 42.7662C20.4097 42.8266 20.5405 43.0229 20.5607 43.1386C20.5657 43.1688 20.5506 43.1789 20.5405 43.194C20.4952 43.2594 20.4499 43.3198 20.4046 43.3853C20.3895 43.4054 20.3795 43.4155 20.3593 43.4054C20.3493 43.4004 20.3392 43.3903 20.3241 43.3752C20.2335 43.2695 20.1429 43.1588 20.0523 43.0581C20.007 43.0078 20.007 42.9876 20.0322 42.9575C20.0775 42.9021 20.1177 42.8417 20.158 42.7813C20.1932 42.731 20.2436 42.7461 20.2989 42.7662H20.304Z" fill="#AF6C4D"/>
<path d="M21.6982 44.8645C21.7385 44.9803 21.7284 45.0507 21.6932 45.1061C21.6429 45.1816 21.5925 45.2571 21.5372 45.3326C21.4717 45.4182 21.3711 45.4182 21.2503 45.3477C21.215 45.3276 21.1848 45.3125 21.1496 45.2923C21.1244 45.2772 21.1043 45.2672 21.0791 45.247C21.064 45.237 21.0489 45.2269 21.0389 45.2219C20.9684 45.1816 20.9281 45.1866 20.9382 45.3125C20.8225 45.1262 20.7017 44.94 20.5859 44.7538C20.5607 44.7135 20.5607 44.6984 20.5859 44.6883C20.7017 44.633 20.8225 44.5726 20.9382 44.5172L20.9533 44.5424C20.9567 44.6498 21.0036 44.7286 21.0942 44.7789C21.1295 44.7991 21.1647 44.8192 21.1999 44.8393C21.2201 44.8544 21.2452 44.8645 21.2654 44.8796C21.3207 44.9098 21.3761 44.945 21.4365 44.9702C21.5724 45.0407 21.6731 45.0256 21.6982 44.8595V44.8645Z" fill="#AF6C4D"/>
<path d="M21.4566 44.2506C21.4817 44.2657 21.5019 44.3009 21.522 44.3613C21.5421 44.4268 21.5673 44.4972 21.5975 44.5627C21.7233 44.8193 21.5774 44.915 21.4264 44.8445C21.4062 44.8344 21.3911 44.8244 21.3609 44.8143C21.3559 44.8143 21.3509 44.8143 21.3458 44.8093C21.3156 44.7942 21.2955 44.7539 21.2804 44.7036C21.2351 44.5727 21.1244 44.3966 21.1495 44.316C21.1697 44.2405 21.3056 44.2758 21.3861 44.2506C21.4163 44.2405 21.4364 44.2405 21.4566 44.2506Z" fill="#AF6C4D"/>
<path d="M20.3897 44.3566C20.445 44.3868 20.4702 44.4271 20.4601 44.4975C20.4601 44.5428 20.4601 44.5881 20.4601 44.6384C20.4601 44.88 20.4601 44.875 20.2437 44.7542C20.2336 44.7492 20.2236 44.7441 20.2135 44.7341C20.133 44.6888 20.0575 44.6334 20.0122 44.5076C19.9669 44.3667 19.992 44.2811 20.0424 44.2106C20.0575 44.1804 20.0826 44.1804 20.1179 44.2006C20.1179 44.2006 20.1179 44.2006 20.1229 44.2006C20.1682 44.2257 20.2135 44.2559 20.2588 44.2811C20.2991 44.3012 20.3343 44.3264 20.3746 44.3465C20.3796 44.3465 20.3897 44.3515 20.3947 44.3566H20.3897Z" fill="#AF6C4D"/>
<path d="M20.1532 43.2998C20.1532 43.2998 20.1783 43.33 20.1884 43.3652C20.2236 43.5565 20.2589 43.7528 20.2941 43.944C20.284 43.944 20.279 43.944 20.274 43.944C20.2236 43.8937 20.1985 43.8635 20.1733 43.8484C20.1431 43.8283 20.123 43.8484 20.0878 43.9088C20.0324 43.9893 19.977 44.0648 19.9217 44.1504C19.8462 44.2712 19.8613 44.3819 19.972 44.5732C19.8915 44.5178 19.8462 44.4675 19.7958 44.3517C19.7405 44.2158 19.6851 44.0749 19.6297 43.934C19.5744 43.783 19.5844 43.6672 19.6348 43.5766C19.6599 43.5363 19.6901 43.4961 19.7203 43.4558C19.7656 43.3954 19.821 43.3451 19.6448 43.2192H19.6801C19.826 43.2394 19.972 43.2645 20.118 43.2847C20.128 43.2847 20.1431 43.2847 20.1482 43.2947L20.1532 43.2998Z" fill="#AF6C4D"/>
<path d="M20.6666 42.7764C20.6968 42.7965 20.7321 42.8116 20.7623 42.8317C20.8881 42.9022 20.9837 43.023 21.0441 43.179C21.0693 43.2495 21.0995 43.3149 21.1247 43.3803C21.1649 43.481 21.18 43.5263 21.2153 43.5414C21.2354 43.5565 21.2656 43.5565 21.321 43.5615C21.2908 43.7276 21.2606 43.8887 21.2304 44.0498C21.2253 44.08 21.2153 44.0951 21.1951 44.08C21.1901 44.08 21.18 44.0699 21.17 44.0598C21.024 43.9239 20.873 43.783 20.727 43.6471V43.6219C20.7975 43.6018 20.8109 43.533 20.7673 43.4156C20.717 43.2797 20.6616 43.1438 20.6113 43.0129C20.5458 42.8519 20.4804 42.7613 20.3848 42.7009C20.3546 42.6807 20.3143 42.6656 20.274 42.6556C20.3294 42.6103 20.3948 42.6103 20.4754 42.6556C20.5408 42.6908 20.6012 42.7311 20.6666 42.7663V42.7764Z" fill="#AF6C4D"/>
<path d="M22.0959 43.2742C22.0908 44.2859 22.0858 45.3026 22.0858 46.3193C22.0858 46.415 22.0606 46.425 21.9902 46.3797C21.7939 46.264 21.6026 46.1532 21.4113 46.0425C21.1597 45.8965 20.903 45.7506 20.6513 45.6046C20.3946 45.4586 20.143 45.3076 19.8863 45.1617C19.695 45.051 19.5038 44.9402 19.3125 44.8345C19.242 44.7943 19.2269 44.759 19.2269 44.6835C19.232 43.6618 19.237 42.64 19.237 41.6133C19.237 41.5277 19.2622 41.5227 19.3326 41.5629C19.7756 41.8196 20.2235 42.0763 20.6664 42.338C21.1094 42.5998 21.5573 42.8514 22.0002 43.1081C22.0808 43.1534 22.0959 43.1887 22.0959 43.2793V43.2742ZM21.9499 44.7188C21.9499 44.2607 21.9499 43.8027 21.9549 43.3497C21.9549 43.2591 21.9398 43.2189 21.8543 43.1685C21.4164 42.9169 20.9785 42.6652 20.5406 42.4135C20.1832 42.2072 19.8259 42.0008 19.4685 41.7945C19.393 41.7492 19.3679 41.7542 19.3679 41.8448C19.3679 42.7659 19.3679 43.6869 19.3628 44.608C19.3628 44.6886 19.3729 44.7238 19.4484 44.7641C19.851 44.9956 20.2537 45.2271 20.6564 45.4586C21.059 45.6902 21.4566 45.9217 21.8593 46.1532C21.9398 46.1985 21.9499 46.1734 21.9499 46.0979C21.9499 45.6348 21.9499 45.1768 21.9499 44.7188Z" fill="#AF6C4D"/>
<path d="M12.2659 37.5865C12.2608 38.6082 12.2558 39.63 12.2558 40.6568C12.2558 40.7373 12.2407 40.7524 12.1703 40.7121C11.7626 40.4756 11.3649 40.244 10.9623 40.0125C10.4741 39.7306 9.9808 39.4488 9.49258 39.1669C9.41708 39.1216 9.40198 39.0864 9.40198 39.0059C9.40701 37.9891 9.41204 36.9674 9.41204 35.9457C9.41204 35.8551 9.43218 35.845 9.50768 35.8903C9.72914 36.0212 9.9506 36.152 10.1721 36.2778C10.3935 36.4037 10.615 36.5345 10.8364 36.6604C11.0579 36.7862 11.2794 36.9171 11.5008 37.0429C11.7223 37.1687 11.9438 37.2996 12.1652 37.4254C12.2357 37.4657 12.2608 37.4959 12.2608 37.5815L12.2659 37.5865ZM12.125 40.4303C12.125 39.5041 12.125 38.5831 12.135 37.657C12.135 37.5865 12.125 37.5513 12.0545 37.511C11.6518 37.2795 11.2441 37.0429 10.8415 36.8114C10.4388 36.5798 10.0311 36.3433 9.62847 36.1067C9.55801 36.0665 9.54794 36.0866 9.54794 36.1571C9.54794 37.0832 9.54794 38.0093 9.53787 38.9304C9.53787 39.0159 9.56304 39.0461 9.63351 39.0864C9.80464 39.182 9.97577 39.2827 10.1469 39.3833C10.3734 39.5142 10.6049 39.6501 10.8314 39.781C11.0629 39.9118 11.2894 40.0427 11.5159 40.1786C11.6871 40.2793 11.8582 40.3749 12.0293 40.4806C12.0998 40.5209 12.125 40.5209 12.125 40.4303Z" fill="#AF6C4D"/>
<path d="M10.8417 37.0938C10.8769 37.1139 10.8971 37.1542 10.9021 37.1995V37.2196C10.9071 37.2901 10.8769 37.3555 10.9172 37.4209C10.9524 37.4763 11.0229 37.5065 11.0783 37.5518C11.3903 37.8135 11.637 38.1357 11.793 38.5585C11.8383 38.6742 11.8685 38.79 11.8735 38.9208C11.7829 38.8151 11.6923 38.7396 11.6068 38.6893C11.491 38.6239 11.3853 38.6038 11.2796 38.6138C11.2695 38.6138 11.2544 38.6138 11.2444 38.6037C11.2242 38.5937 11.2091 38.5736 11.194 38.5585C11.1286 38.488 11.0632 38.4226 10.9977 38.3521C10.9776 38.332 10.9575 38.3169 10.9474 38.3068C10.9172 38.2867 10.9021 38.3068 10.9021 38.3773C10.9021 38.6692 10.9021 38.951 10.9021 39.2329C10.9021 39.3839 10.8065 39.4493 10.6756 39.404C10.6605 39.399 10.6504 39.394 10.6353 39.3839C10.5347 39.3235 10.434 39.1926 10.3937 39.0517C10.3837 39.0165 10.3786 38.9812 10.3736 38.946C10.3736 38.8957 10.3887 38.8655 10.429 38.8856C10.429 38.8856 10.434 38.8856 10.439 38.8856C10.4743 38.9057 10.4894 38.946 10.4944 38.9913C10.5045 39.097 10.5548 39.1826 10.6404 39.2329C10.6404 39.2329 10.6454 39.2329 10.6504 39.2379C10.731 39.2782 10.7763 39.2379 10.7763 39.1121C10.7763 38.8403 10.7763 38.5635 10.7763 38.2867C10.7763 38.2313 10.7662 38.2061 10.736 38.186C10.7259 38.181 10.7108 38.1759 10.6957 38.1709C10.585 38.1407 10.5145 38.1155 10.4441 38.0753C10.3686 38.035 10.2981 37.9746 10.1773 37.8689C10.1421 37.8387 10.1119 37.8186 10.0767 37.7984C10.0112 37.7632 9.94579 37.7431 9.88539 37.728C9.86526 37.728 9.84009 37.7179 9.82499 37.7078C9.81996 37.7078 9.81492 37.6978 9.80989 37.6927C9.78472 37.6525 9.80989 37.6223 9.80989 37.5971C9.89546 37.3052 10.1018 37.2045 10.3786 37.2196C10.4843 37.2246 10.5951 37.2599 10.7108 37.3152C10.7662 37.3404 10.7763 37.3253 10.7763 37.2649C10.7763 37.2196 10.7763 37.1693 10.7763 37.124C10.7763 37.0787 10.7964 37.0586 10.8417 37.0837V37.0938Z" fill="#AF6C4D"/>
<path d="M14.435 39.8165C14.4753 39.8417 14.5206 39.8719 14.5608 39.9071C14.6162 39.9524 14.6413 40.0128 14.6464 40.0782C14.6464 40.1638 14.6212 40.199 14.5407 40.1638C14.5306 40.1588 14.5206 40.1537 14.5105 40.1487C14.4904 40.1386 14.4652 40.1235 14.435 40.1034C14.435 40.1034 14.43 40.1034 14.4249 40.0984C14.4149 40.0933 14.4048 40.0883 14.3947 40.0833C14.3847 40.0833 14.3746 40.0732 14.3645 40.0682C14.3444 40.0581 14.3293 40.043 14.3243 40.0128C14.3041 39.9323 14.3243 39.8568 14.3243 39.7762C14.3595 39.7762 14.3998 39.7964 14.435 39.8165Z" fill="#AF6C4D"/>
<path d="M15.2355 40.3048C15.2557 40.4256 15.2708 40.5213 15.2859 40.6219C15.2859 40.6421 15.306 40.6773 15.2808 40.6723C15.2657 40.6672 15.2456 40.6572 15.2305 40.6471C15.2154 40.637 15.1953 40.627 15.1802 40.6119C15.155 40.5917 15.1651 40.5666 15.1701 40.5515C15.1902 40.4709 15.1953 40.3803 15.2355 40.2998V40.3048Z" fill="#AF6C4D"/>
<path d="M14.5009 41.3366C14.5814 41.3819 14.5663 41.4423 14.5663 41.4977C14.5663 41.5581 14.5814 41.6386 14.4958 41.5883C14.4958 41.5883 14.4958 41.5883 14.4908 41.5883C14.3952 41.5279 14.4707 41.4826 14.4354 41.4373C14.4606 41.397 14.4052 41.2863 14.4958 41.3366H14.5009Z" fill="#AF6C4D"/>
<path d="M13.8766 41.0042C13.9068 41.0595 13.9118 41.0947 13.8967 41.1249L13.8665 41.1098C13.8464 41.0595 13.8665 41.0394 13.8766 41.0042Z" fill="#AF6C4D"/>
<path d="M17.3192 42.9926C17.3494 43.0479 17.3545 43.0882 17.3394 43.1134L17.3092 43.0983C17.289 43.0479 17.3092 43.0278 17.3192 42.9926Z" fill="#AF6C4D"/>
<path d="M18.6182 41.4676C18.6182 41.7495 18.6182 42.0314 18.6182 42.3132C18.6182 42.8971 18.6182 43.4809 18.6132 44.0698C18.6132 44.3265 18.5175 44.3819 18.2961 44.256C16.5999 43.2796 14.9087 42.2981 13.2125 41.3217C12.981 41.1908 12.8904 41.0297 12.8904 40.768C12.8904 39.9073 12.8904 39.0467 12.8904 38.186C12.8904 37.9544 12.991 37.8991 13.1974 38.0148C14.0883 38.5282 14.9741 39.0416 15.865 39.555C16.2324 39.7664 16.5999 39.9778 16.9723 40.1942C17.0529 40.2395 17.0831 40.2697 17.0428 40.3452C17.0076 40.4207 16.9824 40.5164 16.9522 40.5969C16.9371 40.6372 16.9522 40.6623 16.9824 40.6824L17.0126 40.6975C17.1468 40.7781 17.1938 40.8821 17.1535 41.0096C17.1183 41.1153 17.0881 41.216 17.0579 41.3217C17.0579 41.3217 17.0579 41.3317 17.0629 41.3519C17.224 41.1908 17.3851 41.0348 17.5562 40.8636C17.4907 40.8234 17.4354 40.7932 17.38 40.763C17.3549 40.7479 17.3247 40.7328 17.2995 40.7177C17.2592 40.6925 17.2492 40.6724 17.2643 40.6422C17.2995 40.5818 17.3297 40.5164 17.3599 40.4509C17.375 40.4207 17.4002 40.4358 17.4304 40.4509C17.6367 40.5717 17.8431 40.6875 18.0494 40.8083C18.1551 40.8687 18.2558 40.9291 18.3615 40.9895C18.5175 41.0801 18.6182 41.2713 18.6182 41.4626V41.4676ZM14.9238 40.8183C14.9037 40.914 14.8986 40.9291 14.9691 40.9643C14.9792 40.9693 14.9943 40.9794 15.0094 40.9844C15.0547 41.0096 15.0748 41.0046 15.0798 40.9542C15.0849 40.9039 15.105 40.8586 15.1151 40.8083C15.1151 40.7831 15.1302 40.773 15.1553 40.7831C15.1855 40.7932 15.2157 40.8032 15.2359 40.8183C15.3164 40.8636 15.3466 40.9291 15.3718 41.065C15.3768 41.0901 15.3818 41.1203 15.3869 41.1455C15.3969 41.2009 15.4221 41.226 15.4473 41.2411C15.4624 41.2462 15.4724 41.2512 15.4875 41.2562C15.5026 41.2562 15.5127 41.2663 15.5278 41.2713C15.5932 41.3116 15.553 41.226 15.5479 41.1958C15.5026 40.8989 15.4473 40.6019 15.402 40.305C15.3869 40.2043 15.3617 40.1338 15.3063 40.1036C15.2912 40.0986 15.2812 40.0885 15.261 40.0885C15.2308 40.0734 15.2107 40.0583 15.1906 40.0483C15.1805 40.0432 15.1704 40.0332 15.1604 40.0281C15.0949 39.9929 15.105 40.013 15.0748 40.1389C15.0245 40.3603 14.9792 40.5868 14.9288 40.8083M15.6234 40.8133C15.6234 40.8888 15.6234 40.9693 15.6234 41.0499C15.6285 41.1858 15.7191 41.3619 15.8348 41.4425C15.8751 41.4727 15.9153 41.4978 15.9556 41.518C15.9959 41.5381 16.0311 41.5582 16.0663 41.5733C16.2274 41.6438 16.313 41.528 16.2777 41.226C16.2727 41.1606 16.2475 41.1304 16.2123 41.1103C16.1922 41.1002 16.1771 41.0952 16.1569 41.0851C16.1368 41.0801 16.1167 41.07 16.1016 41.0599C16.0915 41.0549 16.0764 41.0448 16.0663 41.0348H16.0563C16.0563 41.0348 16.0361 41.0146 16.0261 41.0096C15.9908 40.9895 15.9606 40.9794 15.9606 41.0549C15.9606 41.1254 15.9757 41.1656 16.0311 41.2009C16.0361 41.2009 16.0412 41.2059 16.0462 41.2109C16.0462 41.2109 16.0512 41.2109 16.0563 41.216C16.1217 41.2512 16.1418 41.3116 16.1016 41.3569C16.0663 41.3972 16.0261 41.3821 15.9757 41.3569C15.9405 41.3368 15.9053 41.3066 15.8701 41.2864C15.8046 41.2462 15.7744 41.1707 15.7744 41.0952C15.7744 40.9643 15.7744 40.8385 15.7744 40.7076C15.7744 40.6522 15.7946 40.622 15.8348 40.622C15.855 40.622 15.8801 40.6321 15.9103 40.6472C15.9808 40.6875 16.0663 40.768 16.1066 40.8385C16.1318 40.8838 16.162 40.9089 16.1871 40.924C16.2123 40.9391 16.2375 40.9442 16.2576 40.9442C16.2928 40.9442 16.2576 40.8586 16.2425 40.8133C16.1972 40.6774 16.0714 40.5516 15.9455 40.4761C15.8197 40.4056 15.6989 40.3855 15.6587 40.456C15.6335 40.4962 15.6184 40.5365 15.6184 40.5969C15.6184 40.6674 15.6184 40.7378 15.6184 40.8133M17.9941 43.0632C18.0645 43.1034 18.0897 43.0934 18.0796 43.0078C18.0746 42.9625 18.0545 42.9424 18.0343 42.9323C18.0142 42.9222 17.9991 42.9172 17.984 42.9122C16.4942 42.0515 15.0043 41.1908 13.5145 40.3301C13.5044 40.3251 13.4944 40.3201 13.4843 40.315C13.4793 40.315 13.4742 40.31 13.4692 40.305C13.439 40.2848 13.4239 40.2899 13.4189 40.3251C13.4088 40.4056 13.439 40.4358 13.5044 40.4761C13.8769 40.6925 14.2544 40.9039 14.6268 41.1203C14.9993 41.3368 15.3768 41.5532 15.7493 41.7696C16.1217 41.9861 16.4942 42.2025 16.8717 42.4189C17.2441 42.6353 17.6216 42.8518 17.9941 43.0682M16.776 40.9643C16.6703 40.9039 16.7005 40.9945 16.7005 41.0549C16.7005 41.1807 16.7005 41.3116 16.7005 41.4374C16.7005 41.5784 16.7005 41.7243 16.7005 41.8653C16.7005 41.9307 16.7056 41.9659 16.771 42.0012C16.8566 42.0465 16.9371 42.0918 17.0227 42.1421C17.1082 42.1924 17.1888 42.2377 17.2743 42.288C17.3247 42.3182 17.3448 42.3082 17.3347 42.2427C17.3297 42.1924 17.3498 42.1471 17.2794 42.1018C17.2794 42.1018 17.2794 42.1018 17.2743 42.1018C17.2441 42.0867 17.2139 42.0716 17.1837 42.0515C17.1535 42.0364 17.1233 42.0163 17.0982 42.0012C17.0579 41.976 17.0227 41.9559 16.9874 41.9357C16.9723 41.9257 16.9572 41.9206 16.9421 41.9106C16.9421 41.9106 16.9371 41.9106 16.9321 41.9055C16.8767 41.8753 16.8566 41.8401 16.8566 41.7646C16.8616 41.5633 16.8566 41.3519 16.8566 41.1455C16.8566 41.0851 16.8868 41.0247 16.7811 40.9643C16.7811 40.9643 16.7811 40.9643 16.776 40.9643ZM14.1638 39.9778C14.1638 40.1187 14.1638 40.2647 14.1638 40.4056C14.1638 40.4862 14.189 40.5113 14.2494 40.5466C14.2494 40.5466 14.2494 40.5466 14.2544 40.5466C14.3148 40.5818 14.34 40.5717 14.3349 40.4962C14.3299 40.4308 14.3349 40.3704 14.3349 40.2999C14.3349 40.2345 14.35 40.2194 14.4003 40.2546C14.4507 40.2848 14.4758 40.315 14.4909 40.3754C14.5161 40.456 14.5513 40.5365 14.5715 40.612C14.5966 40.7227 14.647 40.773 14.7174 40.8133C14.7275 40.8183 14.7376 40.8234 14.7527 40.8334C14.803 40.8536 14.803 40.8385 14.7829 40.7831C14.7426 40.6724 14.7023 40.5617 14.6621 40.4509C14.647 40.4056 14.6419 40.3805 14.6772 40.3704C14.798 40.3402 14.8382 40.2244 14.798 40.0483C14.7627 39.8872 14.652 39.7412 14.501 39.6506C14.4658 39.6305 14.4356 39.6104 14.4003 39.5953C14.3802 39.5852 14.355 39.5701 14.3349 39.56C14.3047 39.5399 14.2695 39.5248 14.2393 39.4996C14.2393 39.4996 14.2292 39.4946 14.2242 39.4896C14.1739 39.4594 14.1537 39.4694 14.1588 39.5399C14.1588 39.6859 14.1588 39.8268 14.1588 39.9677M13.434 39.55C13.434 39.6909 13.434 39.8369 13.434 39.9778C13.434 40.0533 13.4591 40.0785 13.5145 40.1137C13.5145 40.1137 13.5145 40.1137 13.5195 40.1137C13.5749 40.1489 13.595 40.1338 13.59 40.0634C13.59 39.9778 13.59 39.9023 13.59 39.8167C13.59 39.7513 13.6051 39.7412 13.6554 39.7664C13.6554 39.7664 13.6655 39.7664 13.6655 39.7714C13.6957 39.7916 13.7259 39.8117 13.7561 39.8268C13.7712 39.8369 13.7863 39.8419 13.7964 39.852C13.8165 39.862 13.8366 39.8771 13.8568 39.8872C13.8668 39.8922 13.8719 39.8973 13.8769 39.9023C13.9272 39.9325 13.9474 39.9224 13.9524 39.8469C13.9524 39.7714 13.9272 39.7412 13.8769 39.711C13.8769 39.711 13.8668 39.711 13.8618 39.706C13.8467 39.6959 13.8266 39.6909 13.8115 39.6808C13.7964 39.6708 13.7813 39.6607 13.7611 39.6506C13.741 39.6355 13.7209 39.6255 13.7007 39.6154C13.6856 39.6053 13.6705 39.6003 13.6554 39.5902C13.6554 39.5902 13.6454 39.5902 13.6403 39.5852C13.5648 39.5399 13.585 39.4845 13.585 39.4292C13.585 39.3738 13.5699 39.3084 13.6454 39.3486C13.6454 39.3486 13.6504 39.3486 13.6554 39.3537C13.6856 39.3738 13.7209 39.3939 13.7561 39.4141C13.7913 39.4342 13.8215 39.4493 13.8568 39.4694C13.9071 39.4996 13.9625 39.5298 14.0128 39.56C14.0883 39.6053 14.0581 39.5198 14.0631 39.4745C14.0682 39.4342 14.0682 39.3889 14.0128 39.3587C14.0128 39.3587 14.0128 39.3587 14.0078 39.3587C13.9121 39.3084 13.8215 39.253 13.7259 39.1976C13.6504 39.1523 13.5699 39.107 13.4944 39.0618C13.439 39.0316 13.4289 39.0517 13.434 39.107C13.434 39.253 13.434 39.399 13.434 39.5449M17.4253 41.8502C17.4253 41.9961 17.4253 42.1421 17.4253 42.288C17.4253 42.3384 17.4354 42.3736 17.4807 42.3988C17.5763 42.4541 17.6719 42.5045 17.7676 42.5598C17.8481 42.6051 17.9236 42.6504 18.0041 42.6957C18.0696 42.736 18.0545 42.6756 18.0545 42.6303C18.0545 42.585 18.0645 42.5447 18.0041 42.5095C18.0041 42.5095 18.0041 42.5095 17.9991 42.5095C17.9689 42.4944 17.9387 42.4743 17.9035 42.4592C17.8431 42.4239 17.7776 42.3837 17.7172 42.3484C17.5763 42.2679 17.5763 42.2679 17.5813 42.1069C17.5813 42.0465 17.6015 42.0465 17.6468 42.0716C17.6468 42.0716 17.6518 42.0716 17.6568 42.0716C17.7122 42.1069 17.7676 42.1371 17.8179 42.1672C17.8431 42.1823 17.8733 42.1975 17.8984 42.2126C17.9236 42.2277 17.9538 42.2427 17.979 42.2629C17.979 42.2629 17.989 42.2629 17.989 42.2679C18.0343 42.2931 18.0595 42.2931 18.0545 42.2226C18.0545 42.1672 18.0595 42.1169 17.989 42.0767C17.989 42.0767 17.984 42.0767 17.979 42.0716C17.9488 42.0565 17.9135 42.0364 17.8833 42.0213C17.8632 42.0112 17.8431 41.9961 17.8179 41.9861C17.7877 41.971 17.7625 41.9508 17.7323 41.9357C17.7021 41.9206 17.677 41.9055 17.6468 41.8904C17.6468 41.8904 17.6367 41.8904 17.6367 41.8854C17.5713 41.8502 17.5713 41.8049 17.5763 41.7445C17.5813 41.6891 17.5562 41.5985 17.6417 41.6488C17.6417 41.6488 17.6518 41.6539 17.6568 41.6589C17.6971 41.6841 17.7323 41.7092 17.7726 41.7294C17.7927 41.7394 17.8129 41.7495 17.833 41.7646C17.8632 41.7797 17.8934 41.7948 17.9186 41.8149C17.9387 41.825 17.9639 41.8401 17.984 41.8552C17.984 41.8552 17.989 41.8552 17.9941 41.8602C18.0595 41.8955 18.0545 41.8502 18.0545 41.7948C18.0545 41.7445 18.0645 41.6992 17.9941 41.6589C17.9941 41.6589 17.9941 41.6589 17.989 41.6589C17.9035 41.6136 17.8229 41.5683 17.7374 41.518C17.6518 41.4676 17.5713 41.4173 17.4857 41.372C17.4354 41.3418 17.4203 41.3569 17.4203 41.4123C17.4203 41.5633 17.4203 41.7042 17.4203 41.8502M15.8902 42.132C15.8902 42.132 15.9254 42.0968 15.8852 42.0565C15.8852 42.0565 15.8751 42.0465 15.8701 42.0465C15.8449 42.0314 15.8399 42.0666 15.8348 42.0867C15.8197 42.132 15.8147 42.1874 15.7795 42.2276C15.7644 42.1522 15.7493 42.0918 15.7392 42.0263C15.7342 41.9911 15.7291 41.9659 15.6939 41.9458C15.6587 41.9257 15.6536 41.9508 15.6486 41.976C15.6335 42.0263 15.6184 42.0716 15.5983 42.1421C15.5781 42.0414 15.563 41.976 15.5479 41.9106C15.5429 41.8854 15.5328 41.8552 15.5127 41.8401C15.5127 41.8401 15.5026 41.8401 15.4976 41.8351C15.4674 41.83 15.4825 41.8653 15.4875 41.8904C15.5077 41.9911 15.5278 42.0918 15.553 42.1924C15.558 42.2226 15.563 42.2528 15.5983 42.2729C15.6385 42.2981 15.6385 42.2629 15.6486 42.2327C15.6637 42.1824 15.6788 42.132 15.6989 42.0616C15.7191 42.1672 15.7342 42.2377 15.7543 42.3132C15.7593 42.3384 15.7694 42.3686 15.7946 42.3837C15.8197 42.3988 15.8298 42.3837 15.8348 42.3635C15.855 42.288 15.8751 42.2075 15.8952 42.132M16.4992 40.7982C16.4438 40.768 16.4086 40.7479 16.4086 40.8385C16.4136 40.9794 16.4086 41.1153 16.4086 41.2562C16.4086 41.4022 16.4086 41.5482 16.4086 41.6941C16.4086 41.7646 16.4287 41.7998 16.4841 41.83C16.4841 41.83 16.4841 41.83 16.4891 41.83C16.5495 41.8653 16.5697 41.8602 16.5697 41.7847C16.5697 41.4928 16.5697 41.2059 16.5697 40.919C16.5697 40.8586 16.5546 40.8284 16.5042 40.7982C16.5042 40.7982 16.4992 40.7982 16.4942 40.7932M14.6168 41.5985C14.6168 41.5582 14.6168 41.523 14.6168 41.4827C14.6168 41.3468 14.5866 41.3116 14.4557 41.226C14.4507 41.226 14.4456 41.216 14.4406 41.216C14.3399 41.1556 14.3802 41.2713 14.3701 41.3267C14.3701 41.3418 14.3701 41.3569 14.3701 41.377C14.3752 41.4324 14.345 41.4978 14.3852 41.5582C14.4003 41.5834 14.4255 41.6035 14.4456 41.6136C14.4809 41.6337 14.5211 41.6438 14.5513 41.6539C14.5866 41.6639 14.6117 41.6388 14.6117 41.5935M16.6603 42.8266C16.6603 42.741 16.6603 42.6555 16.6603 42.5699C16.6603 42.5397 16.6754 42.4994 16.625 42.4743C16.5848 42.4491 16.5898 42.4994 16.5948 42.5296C16.5999 42.6051 16.5747 42.6001 16.5395 42.58C16.5294 42.5749 16.5143 42.5649 16.5042 42.5548C16.4438 42.5095 16.474 42.4692 16.469 42.429C16.469 42.4038 16.469 42.3786 16.4388 42.3585C16.4086 42.3434 16.4086 42.3686 16.4086 42.3937C16.4086 42.439 16.4086 42.4894 16.4086 42.5347C16.4086 42.58 16.4086 42.6303 16.4086 42.6756C16.4086 42.7008 16.3985 42.731 16.4388 42.7561C16.4791 42.7813 16.469 42.736 16.469 42.7108C16.464 42.6404 16.4841 42.6202 16.5395 42.6504C16.5395 42.6504 16.5495 42.6555 16.5546 42.6605C16.625 42.7058 16.5948 42.7461 16.5999 42.7914C16.5999 42.8216 16.5999 42.8518 16.6301 42.8669C16.6603 42.882 16.6603 42.8518 16.6603 42.8266ZM13.6806 40.9693C13.6806 40.9291 13.6806 40.8838 13.6806 40.8435C13.6806 40.8133 13.6907 40.7781 13.6454 40.7529C13.6051 40.7277 13.6101 40.773 13.6152 40.8083C13.6252 40.8838 13.595 40.8838 13.5548 40.8586C13.5447 40.8536 13.5346 40.8435 13.5246 40.8385C13.4642 40.7932 13.4944 40.7579 13.4843 40.7177C13.4843 40.6925 13.4893 40.6673 13.4591 40.6472C13.4591 40.6472 13.4591 40.6472 13.4541 40.6472C13.4239 40.6271 13.4239 40.6623 13.4239 40.6875C13.4239 40.7781 13.4239 40.8636 13.4239 40.9542C13.4239 40.9794 13.4138 41.0096 13.4491 41.0348C13.4893 41.0599 13.4793 41.0096 13.4793 40.9794C13.4742 40.9039 13.4994 40.9039 13.5447 40.9291C13.5497 40.9291 13.5598 40.9391 13.5699 40.9442C13.6353 40.9895 13.6051 41.0247 13.6101 41.065C13.6101 41.0952 13.6101 41.1254 13.6454 41.1455C13.6806 41.1656 13.6756 41.1304 13.6806 41.1002C13.6806 41.0599 13.6806 41.0146 13.6806 40.9693ZM17.7323 43.2796C17.7474 43.2343 17.7374 43.184 17.7021 43.1236C17.6719 43.0783 17.6417 43.0531 17.6065 43.033C17.5763 43.0179 17.5461 43.0028 17.5209 42.9927C17.4706 42.9726 17.4958 43.043 17.4958 43.0732C17.4958 43.1437 17.4958 43.2142 17.4958 43.2897C17.4958 43.3199 17.4807 43.3551 17.526 43.3803C17.5662 43.4004 17.5511 43.3551 17.5562 43.335C17.5562 43.3148 17.5411 43.2645 17.5813 43.2796C17.5813 43.2796 17.5813 43.2796 17.5864 43.2796C17.6115 43.2947 17.6216 43.3299 17.6317 43.3601C17.6468 43.4004 17.6568 43.4507 17.6971 43.4709C17.7072 43.4709 17.7122 43.4809 17.7273 43.4809C17.7072 43.4105 17.7105 43.3417 17.7374 43.2746M17.0931 43.1085C17.0931 43.1085 17.1485 43.0934 17.1334 43.0581C17.1284 43.038 17.1183 43.0279 17.1082 43.0229C17.0931 43.0128 17.078 43.0179 17.0629 43.0229C17.0478 43.0229 17.0277 43.0229 17.0076 43.0128C16.9925 43.0028 16.9774 42.9877 16.9673 42.9625C16.9421 42.882 16.9421 42.8014 16.9673 42.7561C16.9774 42.741 16.9925 42.741 17.0076 42.7561C17.0327 42.7712 17.0579 42.8014 17.0831 42.8367C17.0881 42.8467 17.0982 42.8568 17.1082 42.8618C17.1183 42.8669 17.1284 42.8669 17.1334 42.8618C17.1384 42.8568 17.1334 42.8266 17.1233 42.8065C17.1082 42.7712 17.0831 42.741 17.0529 42.7209C17.0428 42.7108 17.0277 42.7058 17.0176 42.7008C16.9421 42.6555 16.8767 42.6504 16.8918 42.8316C16.8918 42.892 16.8817 42.9625 16.9472 43.038C16.9673 43.0632 16.9925 43.0833 17.0176 43.0984C17.0428 43.1135 17.068 43.1185 17.0881 43.1185M16.2979 42.3585C16.2979 42.3585 16.3432 42.3887 16.3381 42.3384C16.3381 42.3132 16.323 42.3031 16.3079 42.2931C16.3029 42.2931 16.2928 42.288 16.2878 42.283C16.2828 42.283 16.2777 42.278 16.2727 42.2729C16.2727 42.2729 16.2626 42.2729 16.2626 42.2629C16.2626 42.2629 16.2526 42.2578 16.2475 42.2528C16.2375 42.2478 16.2274 42.2427 16.2173 42.2377C16.1821 42.2176 16.1519 42.1975 16.1167 42.1773C16.1016 42.1673 16.0865 42.1673 16.0865 42.1924C16.0865 42.2126 16.0915 42.2327 16.1116 42.2427C16.1167 42.2427 16.1217 42.2478 16.1267 42.2528C16.1972 42.2931 16.1821 42.3484 16.1821 42.4038C16.1821 42.4541 16.1821 42.5045 16.1821 42.5548C16.1821 42.58 16.1821 42.6102 16.2123 42.6303C16.2425 42.6504 16.2425 42.6202 16.2425 42.59C16.2425 42.5246 16.2425 42.4642 16.2425 42.3988C16.2425 42.3736 16.2324 42.3384 16.2677 42.3484C16.2727 42.3484 16.2828 42.3535 16.2928 42.3635M14.8634 41.8552C14.8634 41.8552 14.8986 41.8703 14.8986 41.8401C14.8986 41.8099 14.8785 41.7948 14.8634 41.7847C14.8483 41.7747 14.8332 41.7646 14.8181 41.7545C14.808 41.7495 14.798 41.7445 14.7879 41.7394C14.7829 41.7394 14.7778 41.7344 14.7678 41.7294C14.7225 41.7042 14.7074 41.669 14.7124 41.6136C14.7124 41.5582 14.7124 41.4928 14.7124 41.4324C14.7124 41.4072 14.7174 41.377 14.6822 41.3569C14.647 41.3418 14.657 41.377 14.657 41.3972C14.657 41.4626 14.657 41.5331 14.657 41.5985C14.652 41.679 14.657 41.7445 14.7174 41.7797C14.7325 41.7898 14.7476 41.7948 14.7678 41.7948C14.808 41.82 14.8382 41.8351 14.8684 41.8552M17.4002 43.3199C17.4304 43.335 17.4253 43.3098 17.4203 43.2695C17.4052 43.184 17.3851 43.0783 17.37 42.9776C17.3599 42.9222 17.3448 42.9021 17.2995 42.8769C17.2592 42.8518 17.2492 42.8669 17.2391 42.9021C17.224 42.9826 17.2039 43.0632 17.1888 43.1437C17.1888 43.1638 17.1636 43.1789 17.1988 43.2091C17.1988 43.2091 17.2089 43.2142 17.2089 43.2192C17.229 43.2293 17.2391 43.2192 17.2441 43.1991C17.2492 43.1689 17.2492 43.1336 17.2945 43.1538C17.3398 43.1789 17.3448 43.2242 17.3498 43.2595C17.3549 43.2846 17.3649 43.3048 17.3851 43.3148M13.9474 41.3267C13.9725 41.3317 13.9675 41.3015 13.9625 41.2814C13.9423 41.1757 13.9222 41.065 13.9071 40.9593C13.9021 40.919 13.8819 40.9039 13.8568 40.8888C13.8568 40.8888 13.8517 40.8888 13.8467 40.8888C13.8417 40.8838 13.8366 40.8787 13.8266 40.8737C13.7964 40.8586 13.7863 40.8737 13.7762 40.9089C13.7611 40.9895 13.746 41.07 13.7259 41.1505C13.7259 41.1707 13.7108 41.1858 13.736 41.2109C13.741 41.216 13.746 41.221 13.7511 41.226C13.7662 41.2361 13.7762 41.226 13.7813 41.2109C13.7913 41.1757 13.7913 41.1354 13.8417 41.1656C13.892 41.1958 13.887 41.2411 13.897 41.2814C13.9021 41.3066 13.9121 41.3217 13.9272 41.3267C13.9272 41.3267 13.9323 41.3267 13.9373 41.3267M17.833 43.4709C17.833 43.4256 17.8531 43.4356 17.8833 43.4507C17.8833 43.4507 17.8884 43.4507 17.8934 43.4507C17.9186 43.4658 17.9488 43.4809 17.979 43.496C18.0041 43.5111 18.0243 43.5162 18.0243 43.4809C18.0243 43.4457 17.9991 43.4306 17.979 43.4205C17.9538 43.4054 17.9236 43.3903 17.8934 43.3702C17.8682 43.3551 17.8431 43.34 17.838 43.2997C17.838 43.2595 17.8632 43.2645 17.8884 43.2846C17.9186 43.3048 17.9488 43.3199 17.979 43.335C17.9991 43.345 18.0192 43.3551 18.0192 43.3299C18.0192 43.2947 17.9991 43.2846 17.979 43.2645C17.9337 43.2293 17.8984 43.2041 17.8682 43.189C17.7827 43.1387 17.7776 43.1789 17.7726 43.345C17.7726 43.3903 17.7726 43.4407 17.7726 43.486C17.7726 43.5212 17.7827 43.5464 17.8129 43.5615C17.8431 43.5766 17.8682 43.5917 17.8984 43.6068C17.9286 43.6219 17.9538 43.637 17.984 43.6571C18.0041 43.6672 18.0192 43.6722 18.0243 43.647C18.0243 43.6219 18.0092 43.6017 17.989 43.5917C17.9588 43.5715 17.9286 43.5564 17.8984 43.5363C17.8984 43.5363 17.8884 43.5363 17.8884 43.5313C17.8682 43.5212 17.8481 43.5061 17.8481 43.4709M15.0496 41.8955C15.0245 41.8804 15.0094 41.8602 15.0094 41.825C15.0094 41.7898 15.0295 41.7998 15.0547 41.8099C15.0748 41.82 15.0949 41.8351 15.1151 41.8451C15.1251 41.8502 15.1352 41.8552 15.1453 41.8602C15.1704 41.8753 15.1906 41.8854 15.1906 41.8502C15.1906 41.8149 15.1704 41.7998 15.1453 41.7847C15.1302 41.7747 15.11 41.7646 15.0949 41.7545C15.0899 41.7545 15.0798 41.7445 15.0748 41.7394C15.0698 41.7394 15.0647 41.7344 15.0597 41.7294C15.0396 41.7193 15.0194 41.7042 15.0194 41.6639C15.0194 41.6186 15.0396 41.6287 15.0597 41.6438C15.0597 41.6438 15.0698 41.6488 15.0748 41.6539C15.1 41.669 15.1302 41.6841 15.1604 41.6992C15.1805 41.7092 15.1956 41.7193 15.2006 41.6891C15.2006 41.6639 15.1855 41.6488 15.1654 41.6287C15.1251 41.5985 15.0949 41.5733 15.0698 41.5582C14.9842 41.5079 14.959 41.5482 14.959 41.6941V41.7042C14.959 41.7495 14.959 41.7998 14.959 41.8451C14.959 41.8804 14.9641 41.9055 14.9993 41.9257C15.0547 41.9559 15.11 41.9911 15.1654 42.0213C15.1855 42.0314 15.2006 42.0364 15.2006 42.0062C15.2006 41.981 15.1855 41.9659 15.1704 41.9559C15.1352 41.9357 15.1 41.9156 15.0698 41.8955M14.2997 41.4777C14.2997 41.377 14.2997 41.2764 14.2997 41.1807C14.2997 41.1606 14.2997 41.1354 14.2695 41.1203C14.2393 41.1052 14.2393 41.1304 14.2393 41.1556C14.2393 41.2109 14.2393 41.2663 14.2393 41.3217C14.189 41.2361 14.1588 41.1556 14.1235 41.07C14.1135 41.0448 14.1034 41.0247 14.0833 41.0146C14.0833 41.0146 14.0732 41.0146 14.0682 41.0096C14.043 41.0046 14.048 41.0297 14.048 41.0499C14.048 41.1405 14.048 41.2361 14.048 41.3267C14.048 41.3519 14.048 41.377 14.0732 41.3972C14.1034 41.4123 14.0984 41.3821 14.0984 41.3569C14.0984 41.3066 14.0984 41.2613 14.0984 41.2109L14.1185 41.221C14.1487 41.2965 14.1789 41.372 14.2091 41.4475C14.2192 41.4777 14.2343 41.4928 14.2544 41.5079C14.2544 41.5079 14.2594 41.5079 14.2645 41.5079C14.2896 41.518 14.2947 41.5079 14.2947 41.4827M16.0261 42.3333C16.0261 42.283 16.0261 42.2327 16.0261 42.1874C16.0261 42.1622 16.0261 42.1371 15.9959 42.1169C15.9707 42.1018 15.9606 42.1169 15.9606 42.1471C15.9606 42.2427 15.9606 42.3434 15.9606 42.4441C15.9606 42.4743 15.9707 42.4944 15.9959 42.5095C16.0261 42.5246 16.0261 42.4994 16.0261 42.4743C16.0261 42.429 16.0261 42.3837 16.0261 42.3384" fill="#AF6C4D"/>
<path d="M17.6166 43.1383C17.6166 43.1383 17.6216 43.1383 17.6267 43.1433C17.6619 43.1635 17.6921 43.1886 17.6871 43.239C17.6871 43.2893 17.6518 43.2692 17.6166 43.249C17.6166 43.249 17.6065 43.249 17.6065 43.244C17.5814 43.2289 17.5663 43.2088 17.5663 43.1685C17.5663 43.1232 17.5814 43.1232 17.6116 43.1383H17.6166Z" fill="#AF6C4D"/>
</svg>
