<svg width="56" height="56" viewBox="0 0 56 56" fill="none" xmlns="http://www.w3.org/2000/svg">
<circle cx="28" cy="28" r="28" fill="#0067FF" fill-opacity="0.07"/>
<path d="M12.0913 38.9563L27.7578 44.5239C27.922 44.5525 28.0889 44.5525 28.2532 44.5239L43.9201 38.9563C44.1007 38.8921 44.2592 38.7594 44.3719 38.5781C44.4846 38.3967 44.5455 38.1765 44.5455 37.9501V19.0364C44.5407 18.8199 44.4823 18.6099 44.3777 18.4334C44.2731 18.257 44.1271 18.122 43.9584 18.0457L28.2915 11.5129C28.1063 11.435 27.9046 11.435 27.7194 11.5129L12.0529 18.0456C11.8897 18.1182 11.7476 18.2464 11.6441 18.4145C11.5406 18.5827 11.4801 18.7835 11.4702 18.9923C11.4258 19.0257 11.493 37.9104 11.4658 37.9501C11.4658 38.1765 11.5267 38.3967 11.6394 38.5781C11.7522 38.7594 11.9107 38.8921 12.0913 38.9563ZM42.7992 37.1663L28.8786 42.113V25.813L42.7992 20.4728V37.1663ZM28.0054 13.6143L40.9106 18.995L28.0054 23.9457L15.1006 18.9949L28.0054 13.6143ZM13.2121 20.4728L27.1323 25.813V42.113L13.2121 37.1663V20.4728Z" fill="#0067FF"/>
<path d="M23.1733 25.5603L17.0622 23.1317C16.9283 23.0771 16.786 23.0639 16.6473 23.0933C16.5085 23.1227 16.3773 23.1937 16.2646 23.3006C16.1514 23.4063 16.0593 23.5444 15.9959 23.7037C15.9324 23.863 15.8994 24.0391 15.8994 24.2176V28.4356C15.8993 28.6788 15.9606 28.9156 16.0743 29.1113C16.188 29.3069 16.348 29.4511 16.5309 29.5226L22.642 31.9201C22.7759 31.971 22.9173 31.9816 23.0549 31.9511C23.1926 31.9206 23.3229 31.8498 23.4354 31.7444C23.5478 31.639 23.6395 31.5018 23.7031 31.3436C23.7667 31.1854 23.8004 31.0106 23.8017 30.833V26.6462C23.8018 26.4037 23.7409 26.1675 23.6278 25.9721C23.5148 25.7767 23.3555 25.6324 23.1733 25.5603ZM22.32 30.2225L17.1341 28.2469V24.8479L22.32 26.8457V30.2225Z" fill="#0067FF"/>
<path d="M36.5972 38.6856C36.6873 38.683 41.0429 36.9634 41.0429 36.9634C41.2545 36.8736 41.4253 36.6955 41.5187 36.4672C41.6121 36.2388 41.6207 35.9785 41.5425 35.7422C41.4643 35.5059 41.3057 35.3123 41.1007 35.2032C40.8957 35.094 40.6606 35.0779 40.446 35.1583L36.2709 36.824C36.0806 36.9042 35.9222 37.056 35.8234 37.2529C35.7247 37.4499 35.6919 37.6794 35.7307 37.9013C35.7696 38.1232 35.8777 38.3234 36.0361 38.4668C36.1945 38.6101 36.3931 38.6876 36.5972 38.6856Z" fill="#0067FF"/>
<path d="M37.5671 35.6866C37.5419 35.7948 41.3108 34.3969 41.3969 34.3868C41.5126 34.3461 41.619 34.2837 41.7099 34.2033C41.8008 34.1228 41.8744 34.0258 41.9267 33.9178C41.9789 33.8099 42.0087 33.6931 42.0143 33.574C42.0199 33.455 42.0013 33.3361 41.9594 33.2242C41.9176 33.1122 41.8533 33.0094 41.7704 32.9215C41.6874 32.8337 41.5874 32.7625 41.476 32.7122C41.3646 32.6618 41.244 32.6332 41.121 32.628C40.9981 32.6227 40.8753 32.641 40.7596 32.6817L37.2221 33.927C37.0159 34.0034 36.844 34.1476 36.7364 34.3343C36.6287 34.5209 36.5923 34.7382 36.6334 34.948C36.6746 35.1578 36.7906 35.3467 36.9613 35.4818C37.132 35.6168 37.3465 35.6893 37.5671 35.6866Z" fill="#0067FF"/>
</svg>
