<svg width="56" height="56" viewBox="0 0 56 56" fill="none" xmlns="http://www.w3.org/2000/svg">
<circle cx="28" cy="28" r="28" fill="#0067FF" fill-opacity="0.07"/>
<path d="M28.0001 30.8933C25.1601 30.8933 22.8401 28.5867 22.8401 25.7333C22.8401 22.88 25.1601 20.5867 28.0001 20.5867C30.8401 20.5867 33.1601 22.8933 33.1601 25.7467C33.1601 28.6 30.8401 30.8933 28.0001 30.8933ZM28.0001 22.5867C26.2668 22.5867 24.8401 24 24.8401 25.7467C24.8401 27.4933 26.2534 28.9067 28.0001 28.9067C29.7468 28.9067 31.1601 27.4933 31.1601 25.7467C31.1601 24 29.7334 22.5867 28.0001 22.5867Z" fill="#0067FF"/>
<path d="M28 42.3467C26.0267 42.3467 24.04 41.6001 22.4933 40.1201C18.56 36.3334 14.2133 30.2934 15.8533 23.1067C17.3333 16.5867 23.0267 13.6667 28 13.6667C28 13.6667 28 13.6667 28.0133 13.6667C32.9867 13.6667 38.68 16.5867 40.16 23.1201C41.7867 30.3067 37.44 36.3334 33.5067 40.1201C31.96 41.6001 29.9733 42.3467 28 42.3467ZM28 15.6667C24.12 15.6667 19.1333 17.7334 17.8133 23.5467C16.3733 29.8267 20.32 35.2401 23.8933 38.6667C26.2 40.8934 29.8133 40.8934 32.12 38.6667C35.68 35.2401 39.6267 29.8267 38.2133 23.5467C36.88 17.7334 31.88 15.6667 28 15.6667Z" fill="#0067FF"/>
</svg>
