<svg width="56" height="56" viewBox="0 0 56 56" fill="none" xmlns="http://www.w3.org/2000/svg">
<circle cx="28" cy="28" r="28" fill="#F2F2F7"/>
<path d="M48.867 21.4501L38.9863 26.3905L33.0182 23.4064L7.56885 35.2067L23.4177 42.4743L35.8465 36.6931C37.0922 36.1127 38.3181 35.4955 39.5242 34.8387L48.867 29.7482L51.6869 23.6244V23.4064L48.867 21.4501Z" fill="#E49F6B"/>
<path d="M20.3969 39.2069L23.4178 42.4741L17.0562 39.9487L20.3969 39.2069Z" fill="#AF6C4D"/>
<path d="M23.4178 42.4744L24.2077 36.7667L20.397 39.2072L23.4178 42.4744Z" fill="#A5644A"/>
<path d="M48.8671 29.7481L47.8762 24.9747L51.687 23.6243L48.8671 29.7481Z" fill="#DB976A"/>
<path d="M36.1211 15.8388L51.6868 23.6245L53.9999 22.5798V22.359L38.4342 14.7913L36.1211 15.618V15.8388Z" fill="#AF6C4D"/>
<path d="M36.1211 15.6178L51.6868 23.4064L53.9999 22.3588L38.4342 14.5731L36.1211 15.6178Z" fill="#F9B882"/>
<path d="M20.397 38.9863V39.2071L24.2077 36.7667L47.8763 24.9749L51.687 23.6244V23.4064L48.8672 21.4501L24.9948 30.1021L20.397 38.9863Z" fill="#AF6C4D"/>
<path d="M2 32.8374L17.5657 40.6259L20.3969 39.2075V38.9866L4.82833 31.4189L2 32.6194V32.8374Z" fill="#AF6C4D"/>
<path d="M2 32.6191L17.5657 40.4076L20.3969 38.9864L4.82833 31.2007L2 32.6191Z" fill="#F9B882"/>
<path d="M7.56885 26.2515L23.4177 34.1759L31.2402 29.7197C34.2044 28.0323 37.2564 26.5034 40.3849 25.1417L48.8699 21.4527L33.0182 13.5254C33.0182 13.5254 25.1985 16.7388 21.0537 18.8621C16.4898 21.1978 7.56885 26.2515 7.56885 26.2515Z" fill="#E7AE77"/>
<path d="M4.82837 31.2006L7.56894 26.2517L23.4178 34.1761L20.3969 38.9863L4.82837 31.2006Z" fill="#E49F6B"/>
<g style="mix-blend-mode:soft-light">
<path d="M13.571 37.4033L14.9017 36.5879C15.1084 36.4605 15.2782 36.2821 15.3915 36.0698L17.8121 31.5909C17.8716 31.4776 17.9622 31.3842 18.0726 31.3163L20.0686 30.1017L21.62 30.8123L19.5646 32.1203C19.4655 32.1826 19.3806 32.2704 19.324 32.3751L16.8184 36.8229C16.7108 37.0126 16.5608 37.1739 16.3767 37.2957L15.0942 38.1394L13.571 37.4004V37.4033Z" fill="white"/>
</g>
<path d="M25.9884 30.968L23.0836 29.5156C22.9845 29.4675 22.9845 29.3854 23.0836 29.3373L28.7261 26.5146C28.8252 26.4665 28.9837 26.4665 29.0828 26.5146L31.9876 27.967C32.0867 28.0151 32.0867 28.0972 31.9876 28.1454L26.3451 30.968C26.246 31.0162 26.0875 31.0162 25.9884 30.968Z" fill="#31353F"/>
<path d="M31.7076 28.1482L26.3453 30.8293C26.2462 30.8775 26.0877 30.8775 25.9886 30.8293L23.3641 29.5185C23.265 29.4704 23.265 29.3883 23.3641 29.3401L28.7263 26.659C28.8254 26.6109 28.984 26.6109 29.0831 26.659L31.7076 27.9699C31.8066 28.018 31.8066 28.1001 31.7076 28.1482Z" fill="white"/>
<path d="M26.4952 30.4444L26.2885 30.5464L23.9443 29.3743L24.151 29.2723L26.4952 30.4444Z" fill="#31353F"/>
<path d="M27.724 29.8301L27.5173 29.932L25.1731 28.7627L25.3798 28.658L27.724 29.8301Z" fill="#31353F"/>
<path d="M27.8683 29.7561L27.8032 29.79L25.459 28.6179L25.5241 28.5868L27.8683 29.7561Z" fill="#31353F"/>
<path d="M28.0043 29.6882L27.9392 29.7222L25.595 28.5501L25.6601 28.5189L28.0043 29.6882Z" fill="#31353F"/>
<path d="M28.6893 29.3487L28.6214 29.3799L26.28 28.2078L26.3451 28.1766L28.6893 29.3487Z" fill="#31353F"/>
<path d="M26.7188 30.3313L26.6169 30.3822L24.2727 29.213L24.3775 29.1592L26.7188 30.3313Z" fill="#31353F"/>
<path d="M28.3071 29.5381L28.1032 29.64L25.759 28.4679L25.9657 28.366L28.3071 29.5381Z" fill="#31353F"/>
<path d="M28.5338 29.4249L28.429 29.4759L26.0876 28.3038L26.1896 28.2528L28.5338 29.4249Z" fill="#31353F"/>
<path d="M26.9451 30.2175L26.8404 30.2713L24.499 29.0992L24.6009 29.0482L26.9451 30.2175Z" fill="#31353F"/>
<path d="M27.169 30.1072L27.0671 30.1581L24.7229 28.986L24.8277 28.9351L27.169 30.1072Z" fill="#31353F"/>
<path d="M27.3956 29.994L27.2908 30.045L24.9495 28.8729L25.0514 28.8219L27.3956 29.994Z" fill="#31353F"/>
<path d="M28.5903 27.053L28.797 26.951L31.1384 28.1232L30.9317 28.2251L28.5903 27.053Z" fill="#31353F"/>
<path d="M27.3616 27.6672L27.5682 27.5653L29.9125 28.7374L29.7058 28.8393L27.3616 27.6672Z" fill="#31353F"/>
<path d="M27.217 27.7406L27.2822 27.7067L29.6264 28.8788L29.5584 28.9127L27.217 27.7406Z" fill="#31353F"/>
<path d="M27.0813 27.8085L27.1464 27.7745L29.4906 28.9466L29.4227 28.9806L27.0813 27.8085Z" fill="#31353F"/>
<path d="M26.3962 28.1513L26.4614 28.1173L28.8056 29.2894L28.7404 29.3206L26.3962 28.1513Z" fill="#31353F"/>
<path d="M28.3638 27.166L28.4685 27.115L30.8099 28.2871L30.708 28.3381L28.3638 27.166Z" fill="#31353F"/>
<path d="M26.7754 27.9616L26.9821 27.8568L29.3263 29.0289L29.1196 29.1308L26.7754 27.9616Z" fill="#31353F"/>
<path d="M26.552 28.0717L26.6539 28.0208L28.9981 29.1929L28.8934 29.2438L26.552 28.0717Z" fill="#31353F"/>
<path d="M28.1401 27.2791L28.2421 27.2281L30.5863 28.3974L30.4843 28.4512L28.1401 27.2791Z" fill="#31353F"/>
<path d="M27.9136 27.3895L28.0183 27.3385L30.3597 28.5106L30.2578 28.5616L27.9136 27.3895Z" fill="#31353F"/>
<path d="M27.6902 27.5031L27.7921 27.4521L30.1363 28.6243L30.0344 28.6752L27.6902 27.5031Z" fill="#31353F"/>
<path d="M29.9323 20.0482L25.8866 18.0154C25.7875 17.9673 25.7875 17.8852 25.8866 17.837L31.5291 15.0144C31.6282 14.9662 31.7867 14.9662 31.8858 15.0144L35.9315 17.0471C36.0306 17.0953 36.0306 17.1774 35.9315 17.2255L30.289 20.0453C30.1899 20.0935 30.0314 20.0935 29.9323 20.0453V20.0482Z" fill="#801717"/>
<path d="M35.651 17.2258L30.2888 19.9069C30.1897 19.955 30.0311 19.955 29.9321 19.9069L26.1666 18.0157C26.0675 17.9676 26.0675 17.8855 26.1666 17.8373L31.5288 15.1562C31.6279 15.1081 31.7865 15.1081 31.8856 15.1562L35.651 17.0474C35.7501 17.0956 35.7501 17.1777 35.651 17.2258Z" fill="white"/>
<path d="M31.3703 15.6968L26.7612 18.0042L26.6338 17.9391L31.2429 15.6345L31.3703 15.6968Z" fill="#31353F"/>
<path d="M31.6706 15.847L27.0615 18.1544L26.9341 18.0892L31.5432 15.7847L31.6706 15.847Z" fill="#31353F"/>
<path d="M31.9707 15.9999L27.3615 18.3045L27.2341 18.2394L31.8433 15.9348L31.9707 15.9999Z" fill="#31353F"/>
<path d="M32.2707 16.1501L27.6616 18.4546L27.5342 18.3895L32.1461 16.085L32.2707 16.1501Z" fill="#31353F"/>
<path d="M32.5738 16.3002L27.9619 18.6048L27.8345 18.5397L32.4464 16.2351L32.5738 16.3002Z" fill="#31353F"/>
<path d="M34.5019 16.6878L31.5971 18.1402L31.4697 18.0751L34.3745 16.6227L34.5019 16.6878Z" fill="#31353F"/>
<path d="M34.802 16.8379L31.8972 18.2903L31.7698 18.2252L34.6746 16.7728L34.802 16.8379Z" fill="#31353F"/>
<path d="M35.1018 16.9881L32.197 18.4405L32.0696 18.3754L34.9772 16.923L35.1018 16.9881Z" fill="#31353F"/>
<path d="M33.6381 16.3002L28.3892 18.9247L28.4571 18.9586L33.7061 16.3341L33.6381 16.3002Z" fill="#801717"/>
<path d="M12.6735 24.3943H12.6791L12.4441 24.349C12.4073 24.3433 12.3705 24.3603 12.3847 24.3801L12.4668 24.4991L12.2318 24.4566C12.195 24.4509 12.1582 24.4679 12.1724 24.4877L12.2545 24.6066L12.0195 24.5642C11.9827 24.5585 11.9459 24.5755 11.96 24.5953L12.0421 24.7142L11.8071 24.6718C11.7703 24.6661 11.7335 24.6831 11.7477 24.7029L11.8298 24.8218L11.5948 24.7793C11.558 24.7737 11.5212 24.7907 11.5353 24.8105L11.6175 24.9294L11.3825 24.8869C11.3457 24.8813 11.3089 24.8983 11.323 24.9181L11.4051 25.037L11.1701 24.9945C11.1333 24.9888 11.0965 25.0058 11.1107 25.0257L11.1928 25.1446L10.9578 25.1021C10.921 25.0964 10.8842 25.1134 10.8983 25.1332L10.9804 25.2521L10.7455 25.2097C10.7086 25.204 10.6718 25.221 10.686 25.2408L10.7681 25.3597L10.5331 25.3173C10.4963 25.3116 10.4595 25.3286 10.4737 25.3484L10.5558 25.4673L10.3208 25.4248C10.284 25.4192 10.2472 25.4362 10.2613 25.456L10.3434 25.5749L10.1084 25.5324C10.0716 25.5268 10.0348 25.5438 10.049 25.5636L10.1311 25.6825L9.8961 25.64C9.8593 25.6344 9.82249 25.6513 9.83665 25.6712L9.91875 25.7901L9.68376 25.7476C9.64696 25.7419 9.61015 25.7589 9.62431 25.7787L9.70641 25.8977L9.47143 25.8552C9.43462 25.8495 9.39782 25.8665 9.41197 25.8863L9.49408 26.0052L9.25909 25.9628C9.22228 25.9571 9.18548 25.9741 9.19964 25.9939L9.28174 26.1128L15.0856 29.0148L15.3206 29.0572C15.3574 29.0629 15.3942 29.0459 15.3801 29.0261L15.298 28.9072L15.533 28.9496C15.5698 28.9553 15.6066 28.9383 15.5924 28.9185L15.5103 28.7996L15.7453 28.8421C15.7821 28.8477 15.8189 28.8307 15.8047 28.8109L15.7226 28.692L15.9576 28.7345C15.9944 28.7401 16.0312 28.7232 16.0171 28.7033L15.935 28.5844L16.17 28.6269C16.2068 28.6326 16.2436 28.6156 16.2294 28.5958L16.1473 28.4768L16.3823 28.5193C16.4191 28.525 16.4559 28.508 16.4418 28.4882L16.3597 28.3693L16.5946 28.4117C16.6314 28.4174 16.6682 28.4004 16.6541 28.3806L16.572 28.2617L16.807 28.3041C16.8438 28.3098 16.8806 28.2928 16.8664 28.273L16.7843 28.1541L17.0193 28.1966C17.0561 28.2022 17.0929 28.1852 17.0788 28.1654L16.9967 28.0465L17.2316 28.089C17.2685 28.0946 17.3053 28.0776 17.2911 28.0578L17.209 27.9389L17.444 27.9814C17.4808 27.9871 17.5176 27.9701 17.5034 27.9502L17.4213 27.8313L17.6563 27.8738C17.6931 27.8795 17.7299 27.8625 17.7158 27.8427L17.6337 27.7238L17.8687 27.7662C17.9055 27.7719 17.9423 27.7549 17.9281 27.7351L17.846 27.6162L18.081 27.6586C18.1178 27.6643 18.1546 27.6473 18.1405 27.6275L18.0583 27.5086L18.2933 27.5511C18.3301 27.5567 18.3669 27.5397 18.3528 27.5199L18.2707 27.401L18.5057 27.4435C18.5425 27.4491 18.5793 27.4321 18.5651 27.4123L18.483 27.2934H18.4774L12.6735 24.3943Z" fill="white"/>
<path d="M13.8173 26.6479C13.1491 26.982 13.1491 27.5227 13.8173 27.8568C14.4854 28.1909 15.5669 28.1909 16.2323 27.8568C16.8976 27.5227 16.9004 26.982 16.2323 26.6479C15.5641 26.3138 14.4826 26.3138 13.8173 26.6479ZM16.1162 27.7974C15.5131 28.0975 14.5364 28.0975 13.9334 27.7974C13.3303 27.4972 13.3303 27.0075 13.9334 26.7045C14.5364 26.4044 15.5131 26.4044 16.1162 26.7045C16.7192 27.0046 16.7192 27.4944 16.1162 27.7974Z" fill="black"/>
<path d="M13.854 27.4323L13.7266 27.3672L15.2526 26.6028L15.3828 26.6679L13.854 27.4323Z" fill="black"/>
<path d="M14.1853 27.5961L14.0579 27.531L15.5839 26.7694L15.7141 26.8317L14.1853 27.5961Z" fill="black"/>
<path d="M14.5166 27.7635L14.3892 27.6984L15.9152 26.934L16.0454 26.9991L14.5166 27.7635Z" fill="black"/>
<path d="M14.8479 27.9273L14.7205 27.865L16.2465 27.1006L16.3767 27.1629L14.8479 27.9273Z" fill="black"/>
<path d="M11.2013 25.7787L11.071 25.7164L12.8802 24.8104L13.0076 24.8755L11.2013 25.7787Z" fill="black"/>
<path d="M11.5326 25.9456L11.4023 25.8804L13.2115 24.9773L13.3389 25.0424L11.5326 25.9456Z" fill="black"/>
<path d="M11.8636 26.11L11.7334 26.0477L13.5425 25.1417L13.6699 25.2068L11.8636 26.11Z" fill="black"/>
<path d="M12.1949 26.2773L12.0647 26.2122L13.8738 25.3091L14.0012 25.3742L12.1949 26.2773Z" fill="black"/>
</svg>
