<svg width="56" height="56" viewBox="0 0 56 56" fill="none" xmlns="http://www.w3.org/2000/svg">
<circle cx="28" cy="28" r="28" fill="#F2F2F7"/>
<path d="M19.7998 42.5421L40.2451 30.7399L37.0784 28.9127L16.6356 40.7149L19.7998 42.5421Z" fill="#AF7B2F"/>
<path d="M37.0731 26.9523L33.9064 28.782L37.0757 30.5989L40.2527 28.782L37.0731 26.9523Z" fill="#9B651D"/>
<path d="M37.0784 30.5938L37.0758 32.2541L33.9039 30.4244V28.7769L37.0784 30.5938Z" fill="#9B5B10"/>
<path d="M28.4377 31.9257L25.271 33.7528L28.4377 35.5723L31.6148 33.7528L28.4377 31.9257Z" fill="#9B651D"/>
<path d="M28.4378 35.5723V37.2326L25.2659 35.4055V33.7554L28.4378 35.5723Z" fill="#9B5B10"/>
<path d="M19.7947 36.9117L16.6279 38.7415L19.7972 40.5584L22.9743 38.7415L19.7947 36.9117Z" fill="#9B651D"/>
<path d="M19.7998 40.5636V42.2189L16.6254 40.3917L16.6305 38.7365L19.7998 40.5636Z" fill="#DDB04E"/>
<path d="M19.7998 40.5636V42.2189L22.9768 40.3917L22.9717 38.7365L19.7998 40.5636Z" fill="#C3974B"/>
<path d="M37.0783 30.5938L37.0757 32.2541L40.2527 30.427L40.2501 28.7769L37.0783 30.5938Z" fill="#C3974B"/>
<path d="M19.7998 42.5449V43.0761L40.2477 31.2739V30.7427L19.7998 42.5449Z" fill="#C3974B"/>
<path d="M28.4377 35.5774V37.2326L31.6148 35.4055L31.6096 33.7477L28.4377 35.5774Z" fill="#C3974B"/>
<path d="M11.1744 37.5614L31.6197 25.7617L28.453 23.932L8.01025 35.7342L11.1744 37.5614Z" fill="#AF7B2F"/>
<path d="M28.4478 21.9713L25.281 23.801L28.4503 25.618L31.6248 23.801L28.4478 21.9713Z" fill="#9B651D"/>
<path d="M28.453 25.613L28.4504 27.2734L25.2786 25.4437V23.7961L28.453 25.613Z" fill="#9B5B10"/>
<path d="M19.8124 26.9447L16.6456 28.7719L19.8149 30.5888L22.9894 28.7719L19.8124 26.9447Z" fill="#9B651D"/>
<path d="M19.815 30.5916L19.8124 32.2519L16.6405 30.4222V28.7747L19.815 30.5916Z" fill="#9B5B10"/>
<path d="M11.1693 31.931L8.00256 33.7608L11.1719 35.5777L14.3489 33.7608L11.1693 31.931Z" fill="#9B651D"/>
<path d="M11.1743 35.5828V37.2406L7.99988 35.4108L8.00501 33.7531L11.1743 35.5828Z" fill="#DDB04E"/>
<path d="M11.1744 35.5828V37.2406L14.3489 35.4108L14.3463 33.7531L11.1744 35.5828Z" fill="#C3974B"/>
<path d="M28.4529 25.613L28.4503 27.2734L31.6273 25.4462L31.6222 23.7961L28.4529 25.613Z" fill="#C3974B"/>
<path d="M11.1744 37.5639V38.0951L31.6223 26.2929V25.7617L11.1744 37.5639Z" fill="#C3974B"/>
<path d="M19.8175 30.5965L19.8226 32.2517L22.9868 30.4245L22.9817 28.7667L19.8175 30.5965Z" fill="#C3974B"/>
<path d="M28.4376 47.5338L48.8932 35.7342L45.7264 33.9044L25.2837 45.7066L28.4376 47.5338Z" fill="#AF7B2F"/>
<path d="M45.7213 31.9463L42.5546 33.7735L45.7239 35.5904L48.8983 33.7735L45.7213 31.9463Z" fill="#9B651D"/>
<path d="M45.7264 35.5852L45.7239 37.2456L42.552 35.4158V33.7683L45.7264 35.5852Z" fill="#9B5B10"/>
<path d="M37.0859 36.9171L33.9192 38.7443L37.0885 40.5638L40.263 38.7443L37.0859 36.9171Z" fill="#9B651D"/>
<path d="M37.0885 40.5637L37.0859 42.2241L33.9141 40.3969V38.7468L37.0885 40.5637Z" fill="#9B5B10"/>
<path d="M19.7947 38.8932L16.6279 40.7204L19.7972 42.5373L22.9743 40.7204L19.7947 38.8932Z" fill="#9B651D"/>
<path d="M19.7998 40.5613L19.7972 42.2217L22.9768 40.3919L22.9717 38.7418L19.7998 40.5613Z" fill="#AF7B2F"/>
<path d="M19.7946 36.9147L16.6252 38.7418L19.7997 40.5613L22.9716 38.7418L19.7946 36.9147Z" fill="#9B651D"/>
<path d="M19.7998 40.5613L19.7972 42.2217L16.6254 40.3919V38.7418L19.7998 40.5613Z" fill="#DDB04E"/>
<path d="M19.7972 42.5449V43.0762L22.9717 41.249L22.9691 40.7178L19.7972 42.5449Z" fill="#AF7B2F"/>
<path d="M19.7972 42.5451V43.0763L16.6279 41.2491V40.7153L19.7972 42.5451Z" fill="#DDB04E"/>
<path d="M11.1693 33.9119L8.00256 35.739L11.1719 37.5559L14.3489 35.739L11.1693 33.9119Z" fill="#9B651D"/>
<path d="M11.1743 35.58L11.1718 37.2403L14.3513 35.4106L14.3462 33.7605L11.1743 35.58Z" fill="#AF7B2F"/>
<path d="M11.1668 31.9335L8 33.7606L11.1744 35.5801L14.3463 33.7606L11.1668 31.9335Z" fill="#9B651D"/>
<path d="M11.1743 35.58L11.1718 37.2403L7.99988 35.4106V33.7605L11.1743 35.58Z" fill="#DDB04E"/>
<path d="M11.1718 37.5636V38.0948L14.3436 36.2677V35.7339L11.1718 37.5636Z" fill="#AF7B2F"/>
<path d="M11.1719 37.5636V38.0948L8.00256 36.2677V35.7339L11.1719 37.5636Z" fill="#DDB04E"/>
<path d="M28.4376 41.906L25.276 43.7332L28.4376 45.5501L31.6223 43.7332L28.4376 41.906Z" fill="#9B651D"/>
<path d="M28.4375 44.7906L7.99988 32.9884L11.1666 31.1613L31.6119 42.9634L28.4375 44.7906Z" fill="#9B651D"/>
<path d="M37.0909 39.7991L16.6456 27.997L19.8124 26.1698L40.2577 37.972L37.0909 39.7991Z" fill="#9B651D"/>
<path d="M45.7289 34.8104L25.2836 23.0082L28.4529 21.181L48.8956 32.9806L45.7289 34.8104Z" fill="#9B651D"/>
<path d="M19.8124 39.001V39.5348L16.6431 37.705L16.6456 37.1738L19.8124 39.001Z" fill="#DDB04E"/>
<path d="M24.1288 41.4928V42.0266L20.962 40.1994L20.9646 39.6656L24.1288 41.4928Z" fill="#DDB04E"/>
<path d="M28.4376 45.5553V47.2131L25.2734 45.3834L25.2786 43.7281L28.4376 45.5553Z" fill="#DDB04E"/>
<path d="M28.4377 44.7854V45.3192L8.00269 33.5171V32.9858L28.4377 44.7854Z" fill="#DDB04E"/>
<path d="M37.0885 39.7992V40.333L16.6406 28.5309V27.9971L37.0885 39.7992Z" fill="#9B5B10"/>
<path d="M45.724 34.8132V35.3469L25.2787 23.5448V23.011L45.724 34.8132Z" fill="#9B5B10"/>
<path d="M28.4376 43.9874L48.8932 32.1852L45.7264 30.358L25.2837 42.1602L28.4376 43.9874Z" fill="#DBB768"/>
<path d="M28.4376 43.9873V44.5211L25.2811 42.6914L25.2837 42.1602L28.4376 43.9873Z" fill="#DDB04E"/>
<path d="M15.4933 36.5093V37.0405L12.324 35.2108L12.3265 34.6796L15.4933 36.5093Z" fill="#DDB04E"/>
<path d="M11.1744 34.0148V34.546L8.00256 32.7188V32.1851L11.1744 34.0148Z" fill="#DDB04E"/>
<path d="M28.4375 47.5365V48.0677L25.2708 46.2406L25.2733 45.7094L28.4375 47.5365Z" fill="#DDB04E"/>
<path d="M28.4377 45.5553V47.2131L31.625 45.3834L31.6199 43.7281L28.4377 45.5553Z" fill="#C3974B"/>
<path d="M28.4377 44.7854V45.3192L31.6173 43.492V42.9583L28.4377 44.7854Z" fill="#C3974B"/>
<path d="M45.7266 35.5853L45.724 37.2457L48.901 35.4185L48.8984 33.7684L45.7266 35.5853Z" fill="#C3974B"/>
<path d="M45.724 34.813L45.7266 35.3468L48.8959 33.5171V32.9858L45.724 34.813Z" fill="#C3974B"/>
<path d="M37.0886 39.7991L37.0912 40.3329L40.2554 38.5031V37.9719L37.0886 39.7991Z" fill="#C3974B"/>
<path d="M28.4377 47.5364V48.0676L48.8959 36.268V35.7343L28.4377 47.5364Z" fill="#C3974B"/>
<path d="M28.4377 43.9872V44.521L48.8959 32.7188V32.1851L28.4377 43.9872Z" fill="#C3974B"/>
<path d="M24.129 41.4904L44.5743 29.6883L41.405 27.8611L20.9623 39.6633L24.129 41.4904Z" fill="#DBB768"/>
<path d="M24.129 41.4905V42.0243L44.5743 30.2221V29.6884L24.129 41.4905Z" fill="#C3974B"/>
<path d="M19.8126 39.0037L40.2579 27.2041L37.0886 25.3744L16.6459 37.1766L19.8126 39.0037Z" fill="#DBB768"/>
<path d="M19.8126 39.0037V39.5375L40.2579 27.7353V27.2041L19.8126 39.0037Z" fill="#C3974B"/>
<path d="M15.491 36.5068L35.9363 24.7072L32.7695 22.8774L12.3242 34.6796L15.491 36.5068Z" fill="#DBB768"/>
<path d="M15.491 36.5068V37.0405L35.9388 25.2384V24.7072L15.491 36.5068Z" fill="#C3974B"/>
<path d="M11.1669 34.0148L31.6122 22.2152L28.4454 20.3855L8.00269 32.1877L11.1669 34.0148Z" fill="#DBB768"/>
<path d="M11.1643 34.0151V34.5463L31.6122 22.7467V22.2129L11.1643 34.0151Z" fill="#C3974B"/>
<path d="M37.0912 40.569L37.0963 42.2242L40.2605 40.3971L40.2579 38.7393L37.0912 40.569Z" fill="#C3974B"/>
<g style="mix-blend-mode:multiply" opacity="0.3">
<path d="M45.7735 32.8386L37.1233 37.8341L28.4554 32.8276L37.0748 27.8167L45.7735 32.8386Z" fill="#CC8425"/>
<path d="M27.9536 32.8254L19.3254 37.8341L10.684 32.8408L19.2791 27.8167L27.9536 32.8254Z" fill="#CC8425"/>
<path d="M36.9208 37.975L28.2243 42.9728L19.627 37.9772L28.2243 32.9553L36.9208 37.975Z" fill="#CC8425"/>
</g>
<path d="M28.2684 22.5524V14.8247L36.9208 19.8202V27.5457L28.2684 22.5524Z" fill="#A1663B"/>
<path d="M28.2684 22.5527V14.825L19.627 19.8249V27.546L28.2684 22.5527Z" fill="#D48A53"/>
<path d="M28.2685 24.8154V32.541L19.6271 27.5455V19.8243L28.2685 24.8154Z" fill="#E49F6B"/>
<path d="M19.6271 19.8243L28.2685 24.8154C28.2685 24.8154 25.0079 23.2589 19.6271 19.8243Z" fill="#7F492A"/>
<path d="M28.2684 24.8157V32.5412L36.9208 27.5457V19.8202L28.2684 24.8157Z" fill="#AF6C4D"/>
<path d="M36.9208 19.8337L28.2684 24.816L19.627 19.8249L28.2485 14.825L36.9208 19.8337Z" fill="#E7AE77"/>
<path d="M24.0327 22.3787L32.6543 17.3678L32.3285 17.1807L23.7091 22.1916L24.0327 22.3787Z" fill="#7F492A"/>
<path d="M30.708 26.8413L30.8291 27.0196L30.7696 27.0549L30.7719 27.9994L30.6486 28.0698L30.6464 27.1253L30.5869 27.1605L30.708 26.8413Z" fill="#281407"/>
<path d="M30.1663 28.7764L30.1619 26.9513L31.7492 26.0354L31.7536 27.8606L30.1663 28.7764ZM30.2741 27.0173L30.2786 28.5805L31.6392 27.7945L31.6348 26.2313L30.2741 27.0173Z" fill="#281407"/>
<path d="M31.3465 27.755V27.8871L30.5715 28.3362V28.2019L31.3465 27.755Z" fill="#281407"/>
<path d="M31.2035 26.5548L31.3268 26.7331L31.2651 26.7684L31.2695 27.7129L31.1462 27.7833L31.144 26.8388L31.0824 26.874L31.2035 26.5548Z" fill="#281407"/>
<path d="M32.6189 26.7553C32.6299 26.7509 32.6431 26.7443 32.6541 26.7355C32.6651 26.7289 32.6783 26.7201 32.6894 26.7135V27.0283V27.0481L32.6167 27.09V26.7553H32.6189Z" fill="#281407"/>
<path d="M33.0154 25.5092V26.108C33.0176 26.326 32.8744 26.5858 32.6895 26.7134C32.6785 26.7223 32.6653 26.7289 32.6543 26.7355C32.6411 26.7421 32.6301 26.7487 32.6191 26.7553C32.4341 26.8411 32.291 26.7465 32.291 26.5285V25.9297L33.0154 25.5092Z" fill="#281407"/>
<path d="M33.0176 26.8413V26.9228L32.291 27.3433V27.2596L32.6191 27.0703V27.0901L32.6917 27.0483V27.0306L33.0176 26.8413Z" fill="#281407"/>
<path d="M31.8616 27.7966L31.8572 25.9714L33.4446 25.0555L33.449 26.8807L31.8616 27.7966ZM31.9717 26.0375L31.9761 27.6006L33.3367 26.8146L33.3323 25.2515L31.9717 26.0375Z" fill="#281407"/>
<path d="M34.3473 24.7429C34.6181 24.5866 34.8383 24.7077 34.8427 25.0159C34.803 24.9851 34.7436 24.9851 34.6775 25.0225C34.6115 25.06 34.552 25.1282 34.5124 25.2053C34.4794 25.181 34.4354 25.1766 34.3825 25.1965V25.1128L34.3121 25.1546V25.2383C34.2614 25.2779 34.2152 25.3352 34.1844 25.3968C34.1447 25.366 34.0853 25.366 34.0192 25.4056C33.9532 25.443 33.8938 25.5113 33.8541 25.5883C33.8585 25.2757 34.0765 24.9014 34.3473 24.7451V24.7429Z" fill="#281407"/>
<path d="M34.3825 25.1108V25.899C34.3847 25.9827 34.4441 26.0157 34.5168 25.9739C34.5872 25.932 34.6467 25.8308 34.6467 25.7493L34.7193 25.7075C34.7193 25.8352 34.629 25.9915 34.519 26.0553C34.4067 26.1192 34.3164 26.0685 34.3164 25.9409V25.2363V25.1527L34.3869 25.1108H34.3825Z" fill="#281407"/>
<path d="M33.5568 26.8167L33.5524 24.9916L35.1397 24.0757L35.1441 25.9008L33.5568 26.8167ZM33.6647 25.0576L33.6691 26.6208L35.0297 25.8348L35.0253 24.2716L33.6647 25.0576Z" fill="#281407"/>
<path d="M25.1401 24.1309L27.4607 25.4695V26.5527L25.1401 25.2141V24.1287V24.1309Z" fill="#131111"/>
<path d="M25.1841 24.2036L27.4187 25.4938V26.4823L25.1841 25.1921V24.2058V24.2036Z" fill="white"/>
<path d="M26.2166 24.9122V24.9629L25.2633 24.4124V24.364L26.2166 24.9122Z" fill="#131111"/>
<path d="M27.3393 25.5619V25.6103L26.3772 25.0577L26.3794 25.0071L27.3393 25.5619Z" fill="#131111"/>
<path d="M25.7079 25.3329V25.3813L25.261 25.1238V25.0753L25.7079 25.3329Z" fill="#131111"/>
<path d="M27.3373 26.273V26.3237L25.871 25.476V25.4276L27.3373 26.273Z" fill="#131111"/>
<path d="M26.7208 25.5621V25.6105L25.2633 24.7695V24.7189L26.7208 25.5621Z" fill="#131111"/>
<path d="M27.3372 25.9163V25.9669L26.8837 25.7049V25.6543L27.3372 25.9163Z" fill="#131111"/>
<g style="mix-blend-mode:soft-light">
<path d="M22.9384 21.7491L24.3958 22.5923L33.0152 17.5814L31.5577 16.7404L22.9384 21.7491Z" fill="white"/>
</g>
<g style="mix-blend-mode:soft-light">
<path d="M22.9824 23.2855L23.0969 23.2195L23.2114 23.4176L23.3236 23.3516L23.4381 23.5497L23.5526 23.4837L23.6671 23.6818L23.7816 23.6158L23.8961 23.8139L24.0105 23.7479L24.1228 23.946L24.2395 23.88L24.3518 24.0759L24.3958 24.0517V22.592L22.9384 21.7488V23.2085L22.9824 23.2855Z" fill="white"/>
</g>
<path d="M37.1215 27.7463V20.0186L45.7739 25.0185V32.7418L37.1215 27.7463Z" fill="#A1663B"/>
<path d="M37.1211 27.7463V20.0186L28.4797 25.0185V32.7418L37.1211 27.7463Z" fill="#D48A53"/>
<path d="M37.1213 30.0097V37.7374L28.4799 32.7419V25.0186L37.1213 30.0097Z" fill="#E49F6B"/>
<path d="M28.4799 25.0186L37.1213 30.0097C37.1213 30.0097 33.8606 28.4531 28.4799 25.0186Z" fill="#7F492A"/>
<path d="M37.1215 30.0097V37.7374L45.7739 32.7419V25.0186L37.1215 30.0097Z" fill="#AF6C4D"/>
<path d="M45.7736 25.0185L37.1211 30.0096L28.4797 25.0185L37.0991 20.0186L45.7736 25.0185Z" fill="#E7AE77"/>
<path d="M32.8853 27.5726L41.5047 22.5617L41.181 22.3745L32.5616 27.3854L32.8853 27.5726Z" fill="#7F492A"/>
<path d="M39.5585 32.0347L39.6818 32.213L39.6223 32.2482L39.6245 33.1927L39.5012 33.2632L39.499 32.3187L39.4396 32.3539L39.5585 32.0347Z" fill="#281407"/>
<path d="M39.0191 33.97L39.0146 32.1449L40.602 31.229L40.6064 33.0542L39.0191 33.97ZM39.1269 32.2109L39.1313 33.7741L40.4919 32.9881L40.4875 31.4249L39.1269 32.2109Z" fill="#281407"/>
<path d="M40.1993 32.9485V33.0806L39.4243 33.5297V33.3954L40.1993 32.9485Z" fill="#281407"/>
<path d="M40.0561 31.7488L40.1772 31.9271L40.1178 31.9623L40.12 32.9068L39.9967 32.9773L39.9945 32.0328L39.9351 32.0658L40.0561 31.7488Z" fill="#281407"/>
<path d="M41.4696 31.9491C41.4806 31.9447 41.4938 31.9381 41.5048 31.9292C41.5158 31.9226 41.5291 31.9138 41.5401 31.9072V32.2221V32.2419L41.4674 32.2837V31.9491H41.4696Z" fill="#281407"/>
<path d="M41.8658 30.7029V31.3017C41.868 31.5197 41.7249 31.7795 41.54 31.9072C41.529 31.916 41.5158 31.9226 41.5047 31.9292C41.4915 31.9358 41.4805 31.9424 41.4695 31.949C41.2846 32.0349 41.1415 31.938 41.1415 31.7222V31.1234L41.8658 30.7029Z" fill="#281407"/>
<path d="M41.8703 32.0347V32.1161L41.1438 32.5366V32.453L41.4718 32.2636V32.2835L41.5423 32.2438V32.224L41.8703 32.0347Z" fill="#281407"/>
<path d="M40.7144 32.9903L40.71 31.1651L42.2973 30.2493L42.3017 32.0744L40.7144 32.9903ZM40.8244 31.2312L40.8289 32.7944L42.1895 32.0084L42.1851 30.4452L40.8244 31.2312Z" fill="#281407"/>
<path d="M43.1978 29.9367C43.4686 29.7804 43.6887 29.9015 43.6931 30.2075C43.6535 30.1767 43.594 30.1767 43.528 30.2163C43.4619 30.2537 43.4025 30.322 43.3629 30.399C43.3299 30.3748 43.2858 30.3704 43.233 30.3902V30.3066L43.1625 30.3484V30.4321C43.1119 30.4717 43.0657 30.5289 43.0348 30.5906C42.9952 30.5598 42.9358 30.5598 42.8697 30.5994C42.8037 30.6368 42.7442 30.7051 42.7046 30.7821C42.709 30.4695 42.927 30.0952 43.1978 29.9389V29.9367Z" fill="#281407"/>
<path d="M43.2354 30.3041V31.0923C43.2376 31.1759 43.297 31.2089 43.3675 31.1671C43.4379 31.1253 43.4974 31.024 43.4974 30.9426L43.57 30.9007C43.57 31.0284 43.4797 31.1847 43.3697 31.2486C43.2574 31.3124 43.1671 31.2618 43.1671 31.1341V30.4296V30.3459L43.2376 30.3041H43.2354Z" fill="#281407"/>
<path d="M42.4097 32.0125L42.4053 30.1874L43.9926 29.2715L43.9971 31.0966L42.4097 32.0125ZM42.5176 30.2534L42.522 31.8166L43.8826 31.0306L43.8782 29.4674L42.5176 30.2534Z" fill="#281407"/>
<path d="M33.9928 29.325L36.3111 30.6635V31.7489L33.9928 30.4104V29.3272V29.325Z" fill="#131111"/>
<path d="M34.0345 29.3972L36.2692 30.6874V31.6737L34.0345 30.3835V29.3972Z" fill="white"/>
<path d="M35.0671 30.1062V30.1568L34.116 29.6064V29.558L35.0671 30.1062Z" fill="#131111"/>
<path d="M36.19 30.7556V30.8041L35.2301 30.2514V30.2008L36.19 30.7556Z" fill="#131111"/>
<path d="M34.5608 30.5266V30.5751L34.1139 30.3175V30.269L34.5608 30.5266Z" fill="#131111"/>
<path d="M36.1878 31.4669V31.5175L34.7216 30.6699V30.6193L36.1878 31.4669Z" fill="#131111"/>
<path d="M35.5736 30.7558V30.8043L34.1139 29.9632L34.1161 29.9126L35.5736 30.7558Z" fill="#131111"/>
<path d="M36.19 31.1104V31.161L35.7365 30.899V30.8484L36.19 31.1104Z" fill="#131111"/>
<g style="mix-blend-mode:soft-light">
<path d="M31.7889 26.9426L33.2486 27.7858L41.868 22.7749L40.4105 21.9338L31.7889 26.9426Z" fill="white"/>
</g>
<g style="mix-blend-mode:soft-light">
<path d="M31.833 28.4794L31.9475 28.4133L32.0619 28.6115L32.1764 28.5454L32.2909 28.7436L32.4054 28.6775L32.5177 28.8757L32.6344 28.8096L32.7489 29.0078L32.8611 28.9417L32.9756 29.1399L33.0901 29.0738L33.2046 29.2698L33.2486 29.2455V27.7859L31.7889 26.9426V28.4023L31.833 28.4794Z" fill="white"/>
</g>
<path d="M19.3253 27.7463L19.3165 20.0186L27.9777 25.0185V32.7418L19.3253 27.7463Z" fill="#A1663B"/>
<path d="M19.3254 27.7463L19.3166 20.0186L10.684 25.0185V32.7418L19.3254 27.7463Z" fill="#D48A53"/>
<path d="M19.3254 30.0097V37.7374L10.684 32.7419V25.0186L19.3254 30.0097Z" fill="#E49F6B"/>
<path d="M10.684 25.0186L19.3254 30.0097C19.3254 30.0097 16.0648 28.4531 10.684 25.0186Z" fill="#7F492A"/>
<path d="M19.3253 30.0097V37.7374L27.9777 32.7419V25.0186L19.3253 30.0097Z" fill="#AF6C4D"/>
<path d="M27.9778 25.0185L19.3254 30.0096L10.684 25.0185L19.3166 20.0186L27.9778 25.0185Z" fill="#E7AE77"/>
<path d="M15.0873 27.5726L23.7089 22.5617L23.3853 22.3745L14.7637 27.3854L15.0873 27.5726Z" fill="#7F492A"/>
<path d="M21.7626 32.0347L21.8837 32.213L21.8242 32.2482L21.8286 33.1927L21.7053 33.2632L21.7009 32.3187L21.6415 32.3539L21.7626 32.0347Z" fill="#281407"/>
<path d="M21.2208 33.97L21.2164 32.1449L22.8038 31.229L22.8082 33.0542L21.2208 33.97ZM21.3287 32.2109L21.3331 33.7741L22.6937 32.9881L22.6893 31.4249L21.3287 32.2109Z" fill="#281407"/>
<path d="M22.4035 32.9485V33.0806L21.6285 33.5297L21.6263 33.3954L22.4035 32.9485Z" fill="#281407"/>
<path d="M22.2604 31.7488L22.3815 31.9271L22.322 31.9623L22.3242 32.9068L22.2009 32.9773L22.1987 32.0328L22.1393 32.0658L22.2604 31.7488Z" fill="#281407"/>
<path d="M23.6737 31.9491C23.6847 31.9447 23.6979 31.9381 23.7089 31.9292C23.7199 31.9226 23.7332 31.9138 23.7442 31.9072V32.2221V32.2419L23.6715 32.2837V31.9491H23.6737Z" fill="#281407"/>
<path d="M24.0699 30.7029V31.3017C24.0721 31.5197 23.929 31.7795 23.7441 31.9072C23.7331 31.916 23.7199 31.9226 23.7089 31.9292C23.6956 31.9358 23.6846 31.9424 23.6736 31.949C23.4887 32.0349 23.3456 31.938 23.3456 31.7222V31.1234L24.0699 30.7029Z" fill="#281407"/>
<path d="M24.0743 32.0347V32.1161L23.3478 32.5366L23.3456 32.453L23.6736 32.2636V32.2835L23.7463 32.2438V32.224L24.0743 32.0347Z" fill="#281407"/>
<path d="M22.9161 32.9903L22.9117 31.1651L24.4991 30.2493L24.5035 32.0744L22.9161 32.9903ZM23.0262 31.2312L23.0306 32.7944L24.3912 32.0084L24.3868 30.4452L23.0262 31.2312Z" fill="#281407"/>
<path d="M25.4019 29.9367C25.6727 29.7804 25.8928 29.9015 25.8972 30.2075C25.8576 30.1767 25.7982 30.1767 25.7321 30.2163C25.6661 30.2537 25.6066 30.322 25.567 30.399C25.534 30.3748 25.4877 30.3704 25.4371 30.3902V30.3066L25.3666 30.3484V30.4321C25.316 30.4717 25.2698 30.5289 25.2389 30.5906C25.1993 30.5598 25.1399 30.5598 25.0738 30.5994C25.0078 30.6368 24.9483 30.7051 24.9087 30.7821C24.9131 30.4695 25.1311 30.0952 25.4019 29.9389V29.9367Z" fill="#281407"/>
<path d="M25.4395 30.3041V31.0923C25.4417 31.1759 25.5011 31.2089 25.5716 31.1671C25.6442 31.1253 25.7015 31.024 25.7015 30.9426L25.7741 30.9007C25.7741 31.0284 25.6838 31.1847 25.5738 31.2486C25.4615 31.3124 25.3712 31.2618 25.3712 31.1341V30.4296V30.3459L25.4417 30.3041H25.4395Z" fill="#281407"/>
<path d="M24.6137 32.0125L24.6093 30.1874L26.1966 29.2715L26.201 31.0966L24.6137 32.0125ZM24.7215 30.2534L24.7259 31.8166L26.0865 31.0306L26.0821 29.4674L24.7215 30.2534Z" fill="#281407"/>
<path d="M16.1969 29.325L18.5152 30.6635V31.7489L16.1969 30.4104V29.3272V29.325Z" fill="#131111"/>
<path d="M16.2386 29.3972L18.4733 30.6874V31.6737L16.2386 30.3835V29.3972Z" fill="white"/>
<path d="M17.2712 30.1063V30.1569L16.3201 29.6065V29.5581L17.2712 30.1063Z" fill="#131111"/>
<path d="M18.3941 30.7556V30.8041L17.4342 30.2514V30.2008L18.3941 30.7556Z" fill="#131111"/>
<path d="M16.7627 30.5266V30.5751L16.318 30.3175V30.269L16.7627 30.5266Z" fill="#131111"/>
<path d="M18.3919 31.4669V31.5175L16.9257 30.6699V30.6193L18.3919 31.4669Z" fill="#131111"/>
<path d="M17.7777 30.7558V30.8043L16.318 29.9632V29.9126L17.7777 30.7558Z" fill="#131111"/>
<path d="M18.3941 31.1104V31.161L17.9384 30.899L17.9406 30.8484L18.3941 31.1104Z" fill="#131111"/>
<g style="mix-blend-mode:soft-light">
<path d="M13.993 26.9426L15.4505 27.7858L24.0721 22.7749L22.6124 21.9338L13.993 26.9426Z" fill="white"/>
</g>
<g style="mix-blend-mode:soft-light">
<path d="M14.0371 28.4794L14.1516 28.4133L14.266 28.6115L14.3805 28.5454L14.4928 28.7436L14.6095 28.6775L14.7218 28.8757L14.8363 28.8096L14.9508 29.0078L15.0652 28.9417L15.1797 29.1399L15.2942 29.0738L15.4065 29.2698L15.4527 29.2455L15.4505 27.7859L13.993 26.9426V28.4023L14.0371 28.4794Z" fill="white"/>
</g>
<path d="M28.2686 32.8828L28.262 25.1572L36.921 30.1505V37.8783L28.2686 32.8828Z" fill="#A1663B"/>
<path d="M28.2684 32.8828L28.2618 25.1572L19.627 30.1549V37.8783L28.2684 32.8828Z" fill="#D48A53"/>
<path d="M28.2245 35.1459V42.8736L19.6271 37.8781V30.1548L28.2245 35.1459Z" fill="#E49F6B"/>
<path d="M19.6271 30.1548L28.2245 35.1459C28.2245 35.1459 25.0079 33.5893 19.6271 30.1548Z" fill="#7F492A"/>
<path d="M28.2245 35.1461V42.8739L36.9209 37.8784V30.1506L28.2245 35.1461Z" fill="#AF6C4D"/>
<path d="M36.9208 30.1637L28.2243 35.146L19.627 30.1549L28.2618 25.1572L36.9208 30.1637Z" fill="#E7AE77"/>
<path d="M24.0327 32.7087L32.6543 27.7L32.3285 27.5128L23.7091 32.5215L24.0327 32.7087Z" fill="#7F492A"/>
<path d="M30.708 37.1716L30.8291 37.35L30.7696 37.3852L30.7719 38.3297L30.6486 38.4001L30.6464 37.4556L30.5869 37.4909L30.708 37.1716Z" fill="#281407"/>
<path d="M30.1663 39.1071L30.1619 37.282L31.7492 36.3661L31.7536 38.1912L30.1663 39.1071ZM30.2741 37.348L30.2786 38.9112L31.6392 38.1252L31.6348 36.562L30.2741 37.348Z" fill="#281407"/>
<path d="M31.3465 38.0853V38.2196L30.5715 38.6666V38.5345L31.3465 38.0853Z" fill="#281407"/>
<path d="M31.2035 36.8856L31.3268 37.064L31.2651 37.0992L31.2695 38.0437L31.1462 38.1141L31.144 37.1696L31.0824 37.2049L31.2035 36.8856Z" fill="#281407"/>
<path d="M32.6189 37.0882C32.6299 37.0838 32.6431 37.0772 32.6541 37.0684C32.6651 37.0618 32.6783 37.053 32.6894 37.0464V37.3612V37.381L32.6167 37.4229V37.0882H32.6189Z" fill="#281407"/>
<path d="M33.0154 35.842V36.4409C33.0176 36.6588 32.8744 36.9186 32.6895 37.0463C32.6785 37.0551 32.6653 37.0617 32.6543 37.0684C32.6411 37.075 32.6301 37.0816 32.6191 37.0882C32.4341 37.174 32.291 37.0772 32.291 36.8614V36.2626L33.0154 35.842Z" fill="#281407"/>
<path d="M33.0176 37.1716V37.2531L32.291 37.6736V37.5921L32.6191 37.4028V37.4226L32.6917 37.3808V37.361L33.0176 37.1716Z" fill="#281407"/>
<path d="M31.8616 38.1273L31.8572 36.3021L33.4446 35.3862L33.449 37.2114L31.8616 38.1273ZM31.9717 36.3682L31.9761 37.9313L33.3367 37.1453L33.3323 35.5822L31.9717 36.3682Z" fill="#281407"/>
<path d="M34.3473 35.0737C34.6181 34.9174 34.8383 35.0385 34.8427 35.3467C34.803 35.3159 34.7436 35.3159 34.6775 35.3533C34.6115 35.3908 34.552 35.459 34.5124 35.5361C34.4794 35.5119 34.4354 35.5074 34.3825 35.5273V35.4436L34.3121 35.4854V35.5691C34.2614 35.6087 34.2152 35.666 34.1844 35.7276C34.1447 35.6968 34.0853 35.6968 34.0192 35.7364C33.9532 35.7738 33.8938 35.8421 33.8541 35.9192C33.8585 35.6065 34.0765 35.2322 34.3473 35.0759V35.0737Z" fill="#281407"/>
<path d="M34.3825 35.4412V36.2294C34.3847 36.313 34.4441 36.346 34.5168 36.3042C34.5872 36.2624 34.6467 36.1611 34.6467 36.0796L34.7193 36.0378C34.7193 36.1655 34.629 36.3218 34.519 36.3857C34.4067 36.4495 34.3164 36.3989 34.3164 36.269V35.5645V35.4808L34.3869 35.439L34.3825 35.4412Z" fill="#281407"/>
<path d="M33.5568 37.1495L33.5524 35.3243L35.1397 34.4084L35.1441 36.2336L33.5568 37.1495ZM33.6647 35.3904L33.6691 36.9535L35.0297 36.1676L35.0253 34.6044L33.6647 35.3904Z" fill="#281407"/>
<path d="M25.1401 34.4636L27.4607 35.8022V36.8854L25.1401 35.5468V34.4636Z" fill="#131111"/>
<path d="M25.1841 34.5359L27.4187 35.826V36.8124L25.1841 35.5222V34.5359Z" fill="white"/>
<path d="M26.2166 35.2447V35.2932L25.2633 34.745V34.6943L26.2166 35.2447Z" fill="#131111"/>
<path d="M27.3393 35.8922V35.9429L26.3772 35.388L26.3794 35.3374L27.3393 35.8922Z" fill="#131111"/>
<path d="M25.7079 35.6632V35.7139L25.261 35.4563V35.4056L25.7079 35.6632Z" fill="#131111"/>
<path d="M27.3373 36.6034V36.654L25.871 35.8064V35.7579L27.3373 36.6034Z" fill="#131111"/>
<path d="M26.7208 35.8924V35.9431L25.2633 35.0998V35.0492L26.7208 35.8924Z" fill="#131111"/>
<path d="M27.3372 36.2488V36.2973L26.8837 36.0353V35.9846L27.3372 36.2488Z" fill="#131111"/>
<g style="mix-blend-mode:soft-light">
<path d="M22.9384 32.0813L24.3958 32.9224L33.0152 27.9137L31.5577 27.0704L22.9384 32.0813Z" fill="white"/>
</g>
<g style="mix-blend-mode:soft-light">
<path d="M22.9824 33.6158L23.0969 33.552L23.2114 33.7501L23.3236 33.6819L23.4381 33.88L23.5526 33.814L23.6671 34.0121L23.7816 33.9461L23.8961 34.1442L24.0105 34.0782L24.1228 34.2763L24.2395 34.2103L24.3518 34.4084L24.3958 34.382V32.9223L22.9384 32.0813V33.541L22.9824 33.6158Z" fill="white"/>
</g>
<g style="mix-blend-mode:multiply" opacity="0.3">
<path d="M45.7691 25.0139L37.1189 30.0094L28.451 25.0029L37.0726 19.9919L45.7691 25.0139Z" fill="#CC8425"/>
<path d="M27.9492 24.9985L19.321 30.0094L10.6796 25.0139L19.2747 19.9919L27.9492 24.9985Z" fill="#CC8425"/>
<path d="M36.9187 30.15L28.2223 35.1455L19.6249 30.1522L28.22 25.1302L36.9187 30.15Z" fill="#CC8425"/>
</g>
<path d="M28.2662 14.726V7.00049L36.9187 11.996V19.7215L28.2662 14.726Z" fill="#A1663B"/>
<path d="M28.2663 14.7258V7.00024L19.6249 11.998V19.7213L28.2663 14.7258Z" fill="#D48A53"/>
<path d="M28.2663 16.9917V24.7172L19.6249 19.7217V11.9984L28.2663 16.9917Z" fill="#E49F6B"/>
<path d="M19.6249 11.9984L28.2663 16.9895C28.2663 16.9895 25.0057 15.433 19.6249 11.9984Z" fill="#7F492A"/>
<path d="M28.2662 16.9915V24.717L36.9187 19.7215V11.996L28.2662 16.9915Z" fill="#AF6C4D"/>
<path d="M36.9187 12.0068L28.2663 16.9913L19.6249 11.998L28.2443 7.00024L36.9187 12.0068Z" fill="#E7AE77"/>
<path d="M24.0302 14.5545L32.6496 9.54358L32.3259 9.35645L23.7043 14.3674L24.0302 14.5545Z" fill="#7F492A"/>
<path d="M30.7034 19.017L30.8267 19.1953L30.765 19.2283L30.7694 20.175L30.6461 20.2455L30.6439 19.301L30.5845 19.334L30.7034 19.017Z" fill="#281407"/>
<path d="M30.1639 20.952L30.1595 19.1268L31.7469 18.2109L31.7513 20.0361L30.1639 20.952ZM30.2718 19.1929L30.2762 20.756L31.6368 19.97L31.6324 18.4069L30.2718 19.1929Z" fill="#281407"/>
<path d="M31.3442 19.9305V20.0626L30.5692 20.5118V20.3775L31.3442 19.9305Z" fill="#281407"/>
<path d="M31.2009 18.7305L31.322 18.9088L31.2626 18.9418L31.2648 19.8863L31.1415 19.959L31.1393 19.0123L31.0798 19.0475L31.2009 18.7305Z" fill="#281407"/>
<path d="M32.6144 18.931C32.6254 18.9266 32.6386 18.92 32.6496 18.9112C32.6606 18.9046 32.6738 18.8958 32.6848 18.8892V19.204V19.2238L32.6122 19.2656V18.931H32.6144Z" fill="#281407"/>
<path d="M33.0106 17.6848V18.2837C33.0128 18.5016 32.8697 18.7614 32.6847 18.8891C32.6737 18.8979 32.6605 18.9045 32.6495 18.9111C32.6363 18.9177 32.6253 18.9243 32.6143 18.9309C32.4294 19.0168 32.2863 18.9221 32.2863 18.7042V18.1053L33.0106 17.6848Z" fill="#281407"/>
<path d="M33.0151 19.0144V19.0981L32.2886 19.5186V19.4349L32.6166 19.2456V19.2654L32.6871 19.2236V19.2037L33.0151 19.0144Z" fill="#281407"/>
<path d="M31.8593 19.9722L31.8549 18.1471L33.4422 17.2312L33.4466 19.0564L31.8593 19.9722ZM31.9671 18.2131L31.9715 19.7763L33.3322 18.9903L33.3278 17.4271L31.9671 18.2131Z" fill="#281407"/>
<path d="M34.3427 16.9165C34.6135 16.7601 34.8336 16.8834 34.838 17.1895C34.7984 17.1586 34.7389 17.1586 34.6729 17.1961C34.6069 17.2335 34.5474 17.3017 34.5078 17.3788C34.4748 17.3546 34.4307 17.3502 34.3779 17.37V17.2863L34.3074 17.3282V17.4118C34.2568 17.4515 34.2106 17.5087 34.1797 17.5703C34.1401 17.5395 34.0807 17.5395 34.0146 17.5792C33.9486 17.6166 33.8891 17.6848 33.8495 17.7619C33.8539 17.4493 34.0719 17.075 34.3427 16.9187V16.9165Z" fill="#281407"/>
<path d="M34.3801 17.2865V18.0747C34.3823 18.1583 34.4418 18.1914 34.5122 18.1495C34.5849 18.1077 34.6421 18.0064 34.6421 17.925L34.7148 17.8831C34.7148 18.0108 34.6245 18.1672 34.5144 18.231C34.4022 18.2948 34.3119 18.2442 34.3119 18.1165V17.412V17.3283L34.3823 17.2865H34.3801Z" fill="#281407"/>
<path d="M33.5546 18.9927L33.5502 17.1676L35.1375 16.2517L35.142 18.0769L33.5546 18.9927ZM33.6625 17.2336L33.6669 18.7968L35.0275 18.0108L35.0231 16.4477L33.6625 17.2336Z" fill="#281407"/>
<path d="M25.1377 16.3069L27.4582 17.6455V18.7287L25.1377 17.3901V16.3069Z" fill="#131111"/>
<path d="M25.1797 16.3794L27.4143 17.6696V18.6559L25.1797 17.3657V16.3772V16.3794Z" fill="white"/>
<path d="M26.2122 17.0882V17.1389L25.2611 16.5885V16.5378L26.2122 17.0882Z" fill="#131111"/>
<path d="M27.3349 17.7356V17.7862L26.375 17.2314V17.183L27.3349 17.7356Z" fill="#131111"/>
<path d="M25.7035 17.5088V17.5572L25.2588 17.2997V17.2512L25.7035 17.5088Z" fill="#131111"/>
<path d="M27.333 18.4487V18.4971L25.8667 17.6517V17.6011L27.333 18.4487Z" fill="#131111"/>
<path d="M26.7185 17.7354V17.7861L25.2588 16.9428V16.8944L26.7185 17.7354Z" fill="#131111"/>
<path d="M27.335 18.0922V18.1406L26.8815 17.8808V17.8302L27.335 18.0922Z" fill="#131111"/>
<g style="mix-blend-mode:soft-light">
<path d="M22.9338 13.9249L24.3935 14.7681L33.0129 9.75716L31.5554 8.91614L22.9338 13.9249Z" fill="white"/>
</g>
<g style="mix-blend-mode:soft-light">
<path d="M22.9779 15.4617L23.0924 15.3956L23.2068 15.5938L23.3213 15.5277L23.4358 15.7259L23.5503 15.6598L23.6626 15.858L23.7771 15.7919L23.8915 15.9879L24.006 15.924L24.1205 16.12L24.235 16.0561L24.3473 16.2521L24.3935 16.2278V14.7682L22.9338 13.9249V15.3846L22.9779 15.4617Z" fill="white"/>
</g>
<path d="M37.1168 19.9194V12.1938L45.7692 17.1938V24.9149L37.1168 19.9194Z" fill="#A1663B"/>
<path d="M37.1167 19.9194V12.1938L28.4753 17.1916V24.9149L37.1167 19.9194Z" fill="#D48A53"/>
<path d="M37.1169 22.1851V29.9106L28.4755 24.9151V17.1918L37.1169 22.1851Z" fill="#E49F6B"/>
<path d="M28.4755 17.1918L37.1169 22.1829C37.1169 22.1829 33.8563 20.6263 28.4755 17.1918Z" fill="#7F492A"/>
<path d="M37.1168 22.1849V29.9105L45.7692 24.915V17.1938L37.1168 22.1849Z" fill="#AF6C4D"/>
<path d="M45.7692 17.1938L37.1167 22.1849L28.4753 17.1916L37.0969 12.1938L45.7692 17.1938Z" fill="#E7AE77"/>
<path d="M32.8809 19.7477L41.5025 14.7368L41.1766 14.5497L32.5573 19.5606L32.8809 19.7477Z" fill="#7F492A"/>
<path d="M39.5563 24.2106L39.6774 24.3889L39.6179 24.4219L39.6201 25.3686L39.499 25.4391L39.4946 24.4946L39.4352 24.5276L39.5563 24.2106Z" fill="#281407"/>
<path d="M39.0147 26.1435L39.0103 24.3183L40.5976 23.4025L40.602 25.2276L39.0147 26.1435ZM39.1225 24.3844L39.1269 25.9476L40.4876 25.1616L40.4831 23.5984L39.1225 24.3844Z" fill="#281407"/>
<path d="M40.1949 25.1243V25.2564L39.4199 25.7033V25.5712L40.1949 25.1243Z" fill="#281407"/>
<path d="M40.0518 23.9241L40.175 24.1024L40.1134 24.1354L40.1178 25.0799L39.9945 25.1526L39.9923 24.2059L39.9329 24.2411L40.0518 23.9241Z" fill="#281407"/>
<path d="M41.4673 24.1246C41.4783 24.1202 41.4915 24.1136 41.5025 24.1048C41.5135 24.0982 41.5267 24.0894 41.5377 24.0828V24.3976V24.4174L41.4651 24.4592V24.1246H41.4673Z" fill="#281407"/>
<path d="M41.8637 22.8784V23.4773C41.8659 23.6952 41.7228 23.955 41.5379 24.0827C41.5269 24.0915 41.5137 24.0981 41.5027 24.1047C41.4895 24.1113 41.4785 24.1179 41.4674 24.1245C41.2825 24.2104 41.1394 24.1157 41.1394 23.8978V23.2989L41.8637 22.8784Z" fill="#281407"/>
<path d="M41.8681 24.208V24.2917L41.1394 24.71V24.6285L41.4674 24.4392V24.459L41.5401 24.4172V24.3973L41.8681 24.208Z" fill="#281407"/>
<path d="M40.71 25.1658L40.7056 23.3407L42.2929 22.4248L42.2973 24.25L40.71 25.1658ZM40.82 23.4067L40.8245 24.9699L42.1851 24.1839L42.1807 22.6207L40.82 23.4067Z" fill="#281407"/>
<path d="M43.1957 22.1101C43.4665 21.9538 43.6866 22.0749 43.691 22.3831C43.6514 22.3523 43.592 22.3523 43.5259 22.3897C43.4599 22.4271 43.4004 22.4954 43.3608 22.5724C43.3278 22.5482 43.2837 22.5438 43.2309 22.5636V22.48L43.1605 22.5218V22.6055C43.1098 22.6451 43.0636 22.7023 43.0328 22.764C42.9931 22.7332 42.9337 22.7332 42.8676 22.7728C42.8016 22.8102 42.7421 22.8785 42.7025 22.9555C42.7069 22.6429 42.9249 22.2686 43.1957 22.1123V22.1101Z" fill="#281407"/>
<path d="M43.2308 22.48V23.2682C43.233 23.3518 43.2925 23.3849 43.3651 23.343C43.4356 23.3012 43.495 23.1999 43.495 23.1185L43.5677 23.0766C43.5677 23.2043 43.4774 23.3606 43.3673 23.4245C43.2551 23.4883 43.1648 23.4377 43.1648 23.31V22.6055V22.5218L43.2352 22.48H43.2308Z" fill="#281407"/>
<path d="M42.4053 24.1863L42.4009 22.3612L43.9883 21.4453L43.9927 23.2705L42.4053 24.1863ZM42.5132 22.4272L42.5176 23.9904L43.8782 23.2044L43.8738 21.6413L42.5132 22.4272Z" fill="#281407"/>
<path d="M33.9884 21.5004L36.3089 22.839V23.9222L33.9884 22.5836V21.4982V21.5004Z" fill="#131111"/>
<path d="M34.0322 21.5729L36.2669 22.863V23.8494L34.0322 22.5592V21.5707V21.5729Z" fill="white"/>
<path d="M35.0648 22.282V22.3326L34.1115 21.7822V21.7316L35.0648 22.282Z" fill="#131111"/>
<path d="M36.1877 22.9293V22.98L35.2278 22.4251V22.3767L36.1877 22.9293Z" fill="#131111"/>
<path d="M34.5562 22.7025V22.751L34.1115 22.4934V22.4449L34.5562 22.7025Z" fill="#131111"/>
<path d="M36.1854 23.6424V23.6909L34.7191 22.8454V22.7948L36.1854 23.6424Z" fill="#131111"/>
<path d="M35.5711 22.929L35.5689 22.9797L34.1115 22.1364V22.088L35.5711 22.929Z" fill="#131111"/>
<path d="M36.1855 23.2859V23.3344L35.7319 23.0746V23.0239L36.1855 23.2859Z" fill="#131111"/>
<g style="mix-blend-mode:soft-light">
<path d="M31.7869 19.1182L33.2443 19.9614L41.8637 14.9505L40.4063 14.1095L31.7869 19.1182Z" fill="white"/>
</g>
<g style="mix-blend-mode:soft-light">
<path d="M31.8309 20.655L31.9454 20.589L32.0599 20.7871L32.1744 20.7211L32.2866 20.9192L32.4033 20.8532L32.5156 21.0491L32.6301 20.9853L32.7446 21.1834L32.8591 21.1174L32.9735 21.3133L33.088 21.2495L33.2003 21.4454L33.2443 21.4212V19.9615L31.7869 19.1183V20.578L31.8309 20.655Z" fill="white"/>
</g>
<path d="M19.3208 19.9194L19.3142 12.1938L27.9732 17.1938V24.9149L19.3208 19.9194Z" fill="#A1663B"/>
<path d="M19.321 19.9194L19.3144 12.1938L10.6796 17.1916V24.9149L19.321 19.9194Z" fill="#D48A53"/>
<path d="M19.321 22.1851V29.9106L10.6796 24.9151V17.1918L19.321 22.1851Z" fill="#E49F6B"/>
<path d="M10.6796 17.1918L19.321 22.1829C19.321 22.1829 16.0604 20.6285 10.6796 17.1918Z" fill="#7F492A"/>
<path d="M19.3209 22.1849V29.9105L27.9733 24.915V17.1938L19.3209 22.1849Z" fill="#AF6C4D"/>
<path d="M27.9734 17.1938L19.321 22.1849L10.6796 17.1916L19.3144 12.1938L27.9734 17.1938Z" fill="#E7AE77"/>
<path d="M15.085 19.7477L23.7044 14.7368L23.3807 14.5497L14.7614 19.5606L15.085 19.7477Z" fill="#7F492A"/>
<path d="M21.7604 24.2106L21.8815 24.3889L21.822 24.4219L21.8242 25.3686L21.7009 25.4391L21.6987 24.4946L21.6393 24.5276L21.7604 24.2106Z" fill="#281407"/>
<path d="M21.2186 26.1435L21.2142 24.3183L22.8016 23.4025L22.806 25.2276L21.2186 26.1435ZM21.3265 24.3844L21.3309 25.9476L22.6915 25.1616L22.6871 23.5984L21.3265 24.3844Z" fill="#281407"/>
<path d="M22.3988 25.1243V25.2564L21.6238 25.7033V25.5712L22.3988 25.1243Z" fill="#281407"/>
<path d="M22.2557 23.9241L22.379 24.1024L22.3174 24.1354L22.3196 25.0799L22.1985 25.1526L22.1963 24.2059L22.1346 24.2411L22.2557 23.9241Z" fill="#281407"/>
<path d="M23.6692 24.1246C23.6802 24.1202 23.6934 24.1136 23.7044 24.1048C23.7154 24.0982 23.7286 24.0894 23.7396 24.0828V24.3976V24.4174L23.667 24.4592V24.1246H23.6692Z" fill="#281407"/>
<path d="M24.0654 22.8784V23.4773C24.0676 23.6952 23.9245 23.955 23.7396 24.0827C23.7286 24.0915 23.7153 24.0981 23.7043 24.1047C23.6911 24.1113 23.6801 24.1179 23.6691 24.1245C23.4842 24.2104 23.3411 24.1157 23.3411 23.8978V23.2989L24.0654 22.8784Z" fill="#281407"/>
<path d="M24.0697 24.208V24.2917L23.3431 24.71V24.6285L23.6712 24.4392V24.459L23.7416 24.4172V24.3973L24.0697 24.208Z" fill="#281407"/>
<path d="M22.9139 25.1658L22.9095 23.3407L24.4969 22.4248L24.5013 24.25L22.9139 25.1658ZM23.024 23.4067L23.0284 24.9699L24.389 24.1839L24.3846 22.6207L23.024 23.4067Z" fill="#281407"/>
<path d="M25.3973 22.1101C25.6681 21.9538 25.8883 22.0749 25.8927 22.3831C25.8531 22.3523 25.7936 22.3523 25.7276 22.3897C25.6615 22.4271 25.6021 22.4954 25.5625 22.5724C25.5294 22.5482 25.4832 22.5438 25.4326 22.5636V22.48L25.3621 22.5218V22.6055C25.3115 22.6451 25.2652 22.7023 25.2344 22.764C25.1948 22.7332 25.1353 22.7332 25.0693 22.7728C25.0032 22.8102 24.9438 22.8785 24.9042 22.9555C24.9086 22.6429 25.1265 22.2686 25.3973 22.1123V22.1101Z" fill="#281407"/>
<path d="M25.4347 22.48V23.2682C25.4369 23.3518 25.4964 23.3849 25.5668 23.343C25.6395 23.3012 25.6967 23.1999 25.6967 23.1185L25.7694 23.0766C25.7694 23.2043 25.6791 23.3606 25.569 23.4245C25.4567 23.4883 25.3665 23.4377 25.3665 23.31V22.6055V22.5218L25.4369 22.48H25.4347Z" fill="#281407"/>
<path d="M24.6091 24.1863L24.6047 22.3612L26.1921 21.4453L26.1965 23.2705L24.6091 24.1863ZM24.717 22.4272L24.7214 23.9904L26.082 23.2044L26.0776 21.6413L24.717 22.4272Z" fill="#281407"/>
<path d="M16.1925 21.5004L18.5108 22.839V23.9222L16.1925 22.5836V21.4982V21.5004Z" fill="#131111"/>
<path d="M16.2343 21.5729L18.4689 22.863V23.8494L16.2343 22.5592V21.5707V21.5729Z" fill="white"/>
<path d="M17.269 22.282V22.3326L16.3157 21.7822V21.7316L17.269 22.282Z" fill="#131111"/>
<path d="M18.3919 22.9293V22.98L17.4298 22.4251V22.3767L18.3919 22.9293Z" fill="#131111"/>
<path d="M16.7603 22.7025V22.751L16.3134 22.4934V22.4449L16.7603 22.7025Z" fill="#131111"/>
<path d="M18.3896 23.6424V23.6909L16.9233 22.8454V22.7948L18.3896 23.6424Z" fill="#131111"/>
<path d="M17.7732 22.929V22.9797L16.3157 22.1364V22.088L17.7732 22.929Z" fill="#131111"/>
<path d="M18.3896 23.2859V23.3344L17.936 23.0746V23.0239L18.3896 23.2859Z" fill="#131111"/>
<g style="mix-blend-mode:soft-light">
<path d="M13.9908 19.1182L15.4483 19.9614L24.0677 14.9505L22.6102 14.1095L13.9908 19.1182Z" fill="white"/>
</g>
<g style="mix-blend-mode:soft-light">
<path d="M14.0349 20.655L14.1494 20.589L14.2638 20.7871L14.3761 20.7211L14.4906 20.9192L14.6051 20.8532L14.7196 21.0491L14.8341 20.9853L14.9486 21.1834L15.0608 21.1174L15.1753 21.3133L15.292 21.2495L15.4043 21.4454L15.4483 21.4212V19.9615L13.9908 19.1183V20.578L14.0349 20.655Z" fill="white"/>
</g>
<path d="M28.2661 25.0581L28.2595 17.3303L36.9185 22.3258V30.0514L28.2661 25.0581Z" fill="#A1663B"/>
<path d="M28.2663 25.0582L28.2597 17.3304L19.6249 22.3304V30.0515L28.2663 25.0582Z" fill="#D48A53"/>
<path d="M28.2223 27.3211V35.0466L19.6249 30.0511V22.33L28.2223 27.3211Z" fill="#E49F6B"/>
<path d="M19.6249 22.33L28.2223 27.3211C28.2223 27.3211 25.0057 25.7645 19.6249 22.33Z" fill="#7F492A"/>
<path d="M28.2223 27.3213V35.0468L36.9187 30.0513V22.3258L28.2223 27.3213Z" fill="#AF6C4D"/>
<path d="M36.9187 22.3392L28.2223 27.3215L19.6249 22.3304L28.2597 17.3304L36.9187 22.3392Z" fill="#E7AE77"/>
<path d="M24.0302 24.8838L32.6496 19.8729L32.3259 19.6858L23.7043 24.6967L24.0302 24.8838Z" fill="#7F492A"/>
<path d="M30.7034 29.3468L30.8267 29.5251L30.765 29.5604L30.7694 30.5049L30.6461 30.5753L30.6439 29.6308L30.5845 29.666L30.7034 29.3468Z" fill="#281407"/>
<path d="M30.1639 31.2822L30.1595 29.457L31.7469 28.5411L31.7513 30.3663L30.1639 31.2822ZM30.2718 29.5231L30.2762 31.0862L31.6368 30.3002L31.6324 28.7371L30.2718 29.5231Z" fill="#281407"/>
<path d="M31.3442 30.2605V30.3926L30.5692 30.8417V30.7074L31.3442 30.2605Z" fill="#281407"/>
<path d="M31.2009 29.0608L31.322 29.2391L31.2626 29.2743L31.2648 30.2189L31.1415 30.2893L31.1393 29.3448L31.0798 29.38L31.2009 29.0608Z" fill="#281407"/>
<path d="M32.6144 29.2612C32.6254 29.2546 32.6386 29.2502 32.6496 29.2414C32.6606 29.2348 32.6738 29.226 32.6848 29.2194V29.5342V29.554L32.6122 29.5958V29.2612H32.6144Z" fill="#281407"/>
<path d="M33.0106 28.015V28.6139C33.0128 28.8296 32.8697 29.0916 32.6847 29.2193C32.6737 29.2281 32.6605 29.2347 32.6495 29.2413C32.6363 29.2479 32.6253 29.2545 32.6143 29.2611C32.4294 29.347 32.2863 29.2501 32.2863 29.0344V28.4355L33.0106 28.015Z" fill="#281407"/>
<path d="M33.0151 29.3468V29.4283L32.2886 29.8488V29.7651L32.6166 29.5758V29.5956L32.6871 29.5538V29.5361L33.0151 29.3468Z" fill="#281407"/>
<path d="M31.8593 30.3024L31.8549 28.4773L33.4422 27.5614L33.4466 29.3866L31.8593 30.3024ZM31.9671 28.5433L31.9715 30.1065L33.3322 29.3205L33.3278 27.7573L31.9671 28.5433Z" fill="#281407"/>
<path d="M34.3427 27.2488C34.6135 27.0925 34.8336 27.2135 34.838 27.5218C34.7984 27.491 34.7389 27.491 34.6729 27.5284C34.6069 27.5658 34.5474 27.6341 34.5078 27.7111C34.4748 27.6869 34.4307 27.6825 34.3779 27.7023V27.6187L34.3074 27.6605V27.7441C34.2568 27.7838 34.2106 27.841 34.1797 27.9027C34.1401 27.8718 34.0807 27.8718 34.0146 27.9115C33.9486 27.9489 33.8891 28.0171 33.8495 28.0942C33.8539 27.7816 34.0719 27.4073 34.3427 27.251V27.2488Z" fill="#281407"/>
<path d="M34.3801 27.6163V28.4045C34.3823 28.4882 34.4418 28.5212 34.5122 28.4794C34.5849 28.4375 34.6421 28.3363 34.6421 28.2548L34.7148 28.213C34.7148 28.3407 34.6245 28.497 34.5144 28.5608C34.4022 28.6247 34.3119 28.574 34.3119 28.4442V27.7396V27.656L34.3823 27.6141L34.3801 27.6163Z" fill="#281407"/>
<path d="M33.5546 29.3247L33.5502 27.4995L35.1375 26.5836L35.142 28.4088L33.5546 29.3247ZM33.6625 27.5655L33.6669 29.1287L35.0275 28.3427L35.0231 26.7796L33.6625 27.5655Z" fill="#281407"/>
<path d="M25.1377 26.6367L27.4582 27.9753V29.0585L25.1377 27.7199V26.6367Z" fill="#131111"/>
<path d="M25.1797 26.7094L27.4143 27.9995V28.9858L25.1797 27.6957V26.7094Z" fill="white"/>
<path d="M26.2121 27.4184V27.4691L25.261 26.9187V26.8702L26.2121 27.4184Z" fill="#131111"/>
<path d="M27.3349 28.0676V28.1183L26.375 27.5635V27.5128L27.3349 28.0676Z" fill="#131111"/>
<path d="M25.7035 27.8386V27.8871L25.2588 27.6317V27.5811L25.7035 27.8386Z" fill="#131111"/>
<path d="M27.333 28.7788V28.8294L25.8667 27.9818V27.9333L27.333 28.7788Z" fill="#131111"/>
<path d="M26.7185 28.0678V28.1163L25.2588 27.2752V27.2246L26.7185 28.0678Z" fill="#131111"/>
<path d="M27.335 28.422V28.4727L26.8815 28.2107V28.16L27.335 28.422Z" fill="#131111"/>
<g style="mix-blend-mode:soft-light">
<path d="M22.9338 24.2565L24.3935 25.0975L33.0129 20.0888L31.5554 19.2456L22.9338 24.2565Z" fill="white"/>
</g>
<g style="mix-blend-mode:soft-light">
<path d="M22.9779 25.791L23.0924 25.725L23.2068 25.9231L23.3213 25.8571L23.4358 26.0552L23.5503 25.9892L23.6626 26.1873L23.7771 26.1213L23.8915 26.3194L24.006 26.2534L24.1205 26.4515L24.235 26.3854L24.3473 26.5814L24.3935 26.5572V25.0975L22.9338 24.2565V25.7162L22.9779 25.791Z" fill="white"/>
</g>
</svg>
